<svg width="669" height="669" viewBox="0 0 669 669" fill="none" xmlns="http://www.w3.org/2000/svg">
<rect x="139.941" y="139.473" width="389.586" height="389.586" rx="194.793" stroke="#DFE3FD" stroke-width="6.09461"/>
<rect x="161.272" y="161.273" width="345.986" height="345.986" rx="172.993" fill="#DFE3FD"/>
<path d="M334.493 176.275C305.747 176.275 278.8 183.944 255.577 197.342L270.386 223.175C289.666 212.012 311.63 206.077 334.506 206.077C368.814 206.077 401.054 219.437 425.317 243.702C449.58 267.967 462.939 300.21 462.939 334.52C462.939 339.312 462.669 344.064 462.155 348.753H492.096C492.52 344.064 492.725 339.324 492.725 334.52C492.712 247.119 421.875 176.275 334.493 176.275ZM334.493 462.937C300.186 462.937 267.933 449.578 243.683 425.313C219.419 401.047 206.061 368.805 206.061 334.494V334.25H176.274V334.494C176.274 421.883 247.112 492.726 334.493 492.726C363.06 492.726 389.866 485.16 412.999 471.904L398.189 446.071C379 457.08 357.19 462.925 334.493 462.925V462.937Z" fill="#00AEEF"/>
<path d="M334.494 236.816C316.717 236.816 300.058 241.556 285.698 249.867L301.612 277.652C311.284 272.038 322.523 268.814 334.481 268.814C365.257 268.814 391.151 290.112 398.229 318.745H325.439L342.599 348.727H431.098C431.779 344.077 432.138 339.324 432.138 334.494C432.138 280.542 388.416 236.816 334.481 236.816H334.494ZM334.494 400.186C298.273 400.186 268.807 370.718 268.807 334.494V334.25H236.812V334.494C236.812 388.445 280.534 432.172 334.481 432.172C352.091 432.172 368.596 427.521 382.867 419.364L366.94 391.579C357.37 397.052 346.286 400.186 334.481 400.186H334.494Z" fill="#00AEEF"/>
<path d="M312.105 312.641L321.877 297.225C322.021 297.007 322.013 296.633 321.98 296.354C321.958 296.176 321.929 296.086 321.912 296.043C321.433 296.043 319.736 296.026 316.987 296L309.226 308.127L301.481 296L296.555 296.043C296.539 296.083 296.509 296.172 296.487 296.354C296.455 296.633 296.447 297.01 296.582 297.215L306.347 312.644L296.631 327.871C296.558 327.983 296.514 328.149 296.493 328.371C296.474 328.589 296.493 328.765 296.555 328.911C296.555 328.911 296.555 328.911 296.555 328.914L301.784 329L309.223 317.194L316.68 329L321.891 328.914C321.953 328.768 321.972 328.589 321.953 328.374C321.931 328.146 321.885 327.967 321.82 327.851L312.102 312.651L312.105 312.641Z" fill="black"/>
<path d="M202.662 296.2H189.328C187.756 296.2 186.251 296.505 184.855 297.108C183.459 297.707 182.22 298.528 181.171 299.545C180.116 300.568 179.187 301.79 178.409 303.184C177.628 304.582 177.029 306.075 176.63 307.619C176.232 309.165 176.02 310.808 176.001 312.503C175.982 314.195 176.167 315.854 176.546 317.431C176.926 318.997 177.565 320.54 178.447 322.014C179.333 323.494 180.447 324.809 181.759 325.922C182.562 326.597 183.345 327.144 184.085 327.544C184.814 327.942 185.609 328.23 186.446 328.402C187.306 328.581 188.065 328.69 188.702 328.73C189.355 328.77 190.271 328.79 191.45 328.79H202.652C202.652 328.137 202.646 327.621 202.643 327.236C202.638 326.743 202.603 326.193 202.54 325.591C202.465 324.855 202.386 324.554 202.348 324.441C202.302 324.312 202.199 324.084 201.958 323.749C201.8 323.531 201.638 323.388 201.481 323.332C201.228 323.243 200.862 323.143 200.393 323.037C199.927 322.935 199.434 322.872 198.927 322.859C198.39 322.842 197.702 322.842 196.861 322.859C195.167 322.875 192.662 322.882 189.336 322.882C188.002 322.882 186.777 322.584 185.698 321.991C184.614 321.398 183.716 320.597 183.036 319.616C182.364 318.649 181.84 317.53 181.485 316.295C181.13 315.066 180.951 313.791 180.951 312.506C180.951 311.222 181.13 309.947 181.485 308.718C181.84 307.479 182.364 306.363 183.036 305.396C183.719 304.413 184.616 303.615 185.698 303.022C186.777 302.429 188.002 302.131 189.336 302.131C189.664 302.131 190.984 302.181 193.291 302.277C195.565 302.373 197.444 302.386 198.878 302.313C200.651 302.227 201.264 301.956 201.47 301.803C201.722 301.625 201.92 301.409 202.08 301.134C202.256 300.836 202.389 300.545 202.475 300.267C202.562 299.982 202.622 299.621 202.657 299.191C202.695 298.724 202.714 298.33 202.714 298.015C202.714 297.7 202.703 297.253 202.684 296.717C202.679 296.528 202.671 296.356 202.668 296.2H202.662Z" fill="black"/>
<path d="M184.275 309.509C184.039 309.509 183.849 309.602 183.679 309.807C183.513 310.006 183.435 310.228 183.435 310.509V314.49C183.435 314.771 183.51 314.997 183.679 315.192C183.849 315.394 184.036 315.49 184.275 315.49H194.511C194.744 315.49 194.929 315.397 195.091 315.199C195.254 315 195.33 314.775 195.33 314.49V310.509C195.33 310.225 195.254 309.999 195.091 309.801C194.929 309.602 194.744 309.509 194.511 309.509H184.275Z" fill="black"/>
<path d="M292.406 296.2H279.071C277.499 296.2 275.994 296.505 274.598 297.108C273.202 297.707 271.963 298.528 270.914 299.545C269.86 300.568 268.93 301.79 268.152 303.184C267.371 304.582 266.772 306.075 266.373 307.619C265.975 309.165 265.763 310.808 265.744 312.503C265.726 314.195 265.91 315.854 266.289 317.431C266.669 318.997 267.309 320.54 268.19 322.014C269.076 323.494 270.19 324.809 271.502 325.922C272.305 326.597 273.088 327.144 273.828 327.544C274.557 327.942 275.352 328.23 276.189 328.402C277.049 328.581 277.808 328.69 278.445 328.73C279.098 328.77 280.014 328.79 281.194 328.79H292.395C292.395 328.137 292.389 327.621 292.387 327.236C292.381 326.743 292.346 326.193 292.284 325.591C292.208 324.855 292.129 324.554 292.091 324.441C292.045 324.312 291.942 324.084 291.701 323.749C291.544 323.531 291.381 323.388 291.224 323.332C290.972 323.243 290.606 323.143 290.137 323.037C289.67 322.935 289.177 322.872 288.67 322.859C288.133 322.842 287.445 322.842 286.604 322.859C284.91 322.875 282.405 322.882 279.079 322.882C277.745 322.882 276.52 322.584 275.441 321.991C274.357 321.398 273.46 320.597 272.779 319.616C272.107 318.649 271.584 317.53 271.229 316.295C270.873 315.066 270.694 313.791 270.694 312.506C270.694 311.222 270.873 309.947 271.229 308.718C271.584 307.479 272.107 306.363 272.779 305.396C273.462 304.413 274.36 303.615 275.441 303.022C276.52 302.429 277.745 302.131 279.079 302.131C279.407 302.131 280.727 302.181 283.034 302.277C285.309 302.373 287.187 302.386 288.621 302.313C290.394 302.227 291.007 301.956 291.213 301.803C291.465 301.625 291.663 301.409 291.823 301.134C291.999 300.836 292.132 300.545 292.219 300.267C292.305 299.982 292.365 299.621 292.4 299.191C292.438 298.724 292.457 298.33 292.457 298.015C292.457 297.7 292.446 297.253 292.427 296.717C292.419 296.528 292.414 296.356 292.411 296.2H292.406Z" fill="black"/>
<path d="M274.017 309.509C273.781 309.509 273.592 309.602 273.421 309.807C273.255 310.006 273.177 310.228 273.177 310.509V314.49C273.177 314.771 273.253 314.997 273.421 315.192C273.592 315.394 273.779 315.49 274.017 315.49H284.253C284.486 315.49 284.671 315.397 284.833 315.199C284.996 315 285.072 314.775 285.072 314.49V310.509C285.072 310.225 284.996 309.999 284.833 309.801C284.671 309.602 284.486 309.509 284.253 309.509H274.017Z" fill="black"/>
<path d="M233.268 311.685L232.888 311.278L233.173 310.754C233.826 309.549 234.23 308.211 234.398 306.817C234.553 305.436 234.458 304.101 234.124 302.853C233.78 301.588 233.257 300.429 232.579 299.396C231.912 298.366 231.058 297.551 230.023 296.942C228.987 296.333 227.86 296.028 226.659 296.028H206.899V299.048C206.899 299.73 207.054 300.326 207.377 300.85C207.686 301.386 208.065 301.72 208.542 301.896L208.97 302.055V328.111C208.97 328.342 209.03 328.531 209.174 328.707C209.317 328.882 209.472 328.968 209.673 328.968H227.778C228.871 328.968 229.931 328.693 230.928 328.17C231.939 327.647 232.807 326.922 233.533 326.051C234.257 325.163 234.84 324.09 235.268 322.872C235.697 321.653 235.922 320.358 235.922 319.024C235.922 317.616 235.683 316.265 235.22 314.987C234.745 313.722 234.089 312.619 233.271 311.688L233.268 311.685ZM213.877 302.042H226.659C227.431 302.042 228.12 302.389 228.692 303.072C229.261 303.77 229.549 304.598 229.549 305.542C229.549 306.486 229.264 307.327 228.705 308.026C228.136 308.724 227.456 309.072 226.661 309.072H213.88V302.042H213.877ZM230.058 321.795C229.429 322.564 228.654 322.958 227.776 322.958H213.877V315.086H227.776C228.654 315.086 229.429 315.477 230.058 316.248C230.687 317.017 230.996 317.947 230.996 319.024C230.996 320.1 230.687 321.027 230.058 321.799V321.795Z" fill="black"/>
<path d="M238.022 298.426C238.022 300.522 239.418 302.228 241.134 302.228H248.933L248.912 327.935C248.912 328.171 248.974 328.349 249.115 328.518C249.259 328.69 249.413 328.767 249.614 328.767H253.086C253.282 328.767 253.431 328.69 253.569 328.525C253.707 328.356 253.767 328.174 253.767 327.935V302.228H261.547C263.263 302.228 264.659 300.522 264.659 298.426V296.224H238.02V298.426H238.022Z" fill="black"/>
<rect x="514.651" y="418.652" width="92.461" height="92.461" rx="46.2305" fill="#EEF0FE"/>
<rect x="514.651" y="418.652" width="92.461" height="92.461" rx="46.2305" stroke="#DFE3FD" stroke-width="1.30227"/>
<rect x="521.813" y="425.814" width="78.136" height="78.136" rx="39.068" fill="#9E5CF7"/>
<path d="M548.313 465.586H544.389C543.132 465.586 542.114 466.606 542.114 467.861V482.685C542.114 483.939 543.134 484.959 544.389 484.959H548.315C549.574 484.959 550.592 483.939 550.592 482.683V467.861C550.591 467.257 550.351 466.678 549.925 466.251C549.498 465.824 548.919 465.584 548.315 465.584M562.844 444.806H558.92C557.661 444.806 556.643 445.826 556.643 447.083V482.68C556.643 483.939 557.663 484.957 558.922 484.957H562.844C564.103 484.957 565.121 483.937 565.121 482.68V447.085C565.121 445.826 564.101 444.808 562.842 444.808M577.375 456.043H573.449C572.19 456.043 571.172 457.063 571.172 458.322V482.68C571.172 483.939 572.192 484.957 573.449 484.957H577.373C577.977 484.957 578.556 484.717 578.982 484.29C579.409 483.863 579.649 483.284 579.65 482.68V458.319C579.65 457.06 578.63 456.043 577.371 456.043" stroke="white" stroke-width="2.16121" stroke-linecap="round" stroke-linejoin="round"/>
<rect x="550.651" y="288.036" width="92.461" height="92.461" rx="46.2305" fill="#EEF0FE"/>
<rect x="550.651" y="288.036" width="92.461" height="92.461" rx="46.2305" stroke="#DFE3FD" stroke-width="1.30227"/>
<rect x="557.813" y="295.198" width="78.136" height="78.136" rx="39.068" fill="#FF8E6F"/>
<path d="M601.813 330.892L609.905 312.562M591.057 331.298L581.689 312.562M598.536 330.03L590.013 312.562M602.004 312.562L599.747 317.989M583.859 342.949C583.859 346.403 585.231 349.715 587.674 352.157C590.116 354.599 593.428 355.971 596.882 355.971C600.336 355.971 603.648 354.599 606.091 352.157C608.533 349.715 609.905 346.403 609.905 342.949C609.905 339.495 608.533 336.183 606.091 333.74C603.648 331.298 600.336 329.926 596.882 329.926C593.428 329.926 590.116 331.298 587.674 333.74C585.231 336.183 583.859 339.495 583.859 342.949Z" stroke="white" stroke-width="2.4937" stroke-linecap="round" stroke-linejoin="round"/>
<path d="M594.98 340.901L596.881 336.438L598.783 340.899L603.393 341.427L599.943 344.675L600.914 349.461L596.881 347.026L592.849 349.458L593.821 344.672L590.37 341.429L594.98 340.901Z" fill="white"/>
<rect x="514.651" y="157.652" width="92.461" height="92.461" rx="46.2305" fill="#EEF0FE"/>
<rect x="514.651" y="157.652" width="92.461" height="92.461" rx="46.2305" stroke="#DFE3FD" stroke-width="1.30227"/>
<rect x="521.813" y="164.814" width="78.136" height="78.136" rx="39.068" fill="#FF5D9F"/>
<path d="M550.795 207.713H563.562V211.032H550.795V207.713ZM550.795 199.414H569.946V202.733H550.795V199.414ZM550.795 216.011H558.775V219.331H550.795V216.011Z" fill="white"/>
<path d="M574.733 186.136H569.946V184.476C569.946 183.596 569.609 182.752 569.011 182.129C568.412 181.506 567.6 181.157 566.754 181.157H553.986C553.14 181.157 552.328 181.506 551.729 182.129C551.131 182.752 550.795 183.596 550.795 184.476V186.136H546.007C545.16 186.136 544.348 186.486 543.75 187.108C543.151 187.731 542.815 188.575 542.815 189.455V224.31C542.815 225.191 543.151 226.035 543.75 226.658C544.348 227.28 545.16 227.63 546.007 227.63H574.733C575.58 227.63 576.392 227.28 576.99 226.658C577.589 226.035 577.925 225.191 577.925 224.31V189.455C577.925 188.575 577.589 187.731 576.99 187.108C576.392 186.486 575.58 186.136 574.733 186.136ZM553.986 184.476H566.754V191.115H553.986V184.476ZM574.733 224.31H546.007V189.455H550.795V194.435H569.946V189.455H574.733V224.31Z" fill="white"/>
<rect x="418.651" y="61.6521" width="92.461" height="92.461" rx="46.2305" fill="#EEF0FE"/>
<rect x="418.651" y="61.6521" width="92.461" height="92.461" rx="46.2305" stroke="#DFE3FD" stroke-width="1.30227"/>
<rect x="425.813" y="68.8152" width="78.136" height="78.136" rx="39.068" fill="#E354D4"/>
<path d="M458.369 94.8602H482.244M447.083 94.4261L448.819 96.1624L453.16 91.8215M447.083 107.449L448.819 109.185L453.16 104.844M447.083 120.471L448.819 122.208L453.16 117.867M458.369 107.883H482.244M458.369 120.906H482.244" stroke="white" stroke-width="3.11713" stroke-linecap="round" stroke-linejoin="round"/>
<rect x="288.504" y="26.6521" width="92.461" height="92.461" rx="46.2305" fill="#EEF0FE"/>
<rect x="288.504" y="26.6521" width="92.461" height="92.461" rx="46.2305" stroke="#DFE3FD" stroke-width="1.30227"/>
<rect x="295.667" y="33.8145" width="78.136" height="78.136" rx="39.068" fill="#5C67F7"/>
<path d="M321.712 79.3945H315.201M315.201 92.4171H341.246C343.269 92.4171 344.28 92.4171 345.077 92.0872C345.604 91.8691 346.083 91.5492 346.486 91.1459C346.889 90.7425 347.209 90.2637 347.427 89.7366C347.757 88.9401 347.757 87.9287 347.757 85.9058C347.757 83.8829 347.757 82.8715 347.427 82.075C347.209 81.5479 346.889 81.0691 346.486 80.6657C346.083 80.2624 345.604 79.9425 345.077 79.7244C344.28 79.3945 343.269 79.3945 341.246 79.3945H336.905H347.757C349.78 79.3945 350.792 79.3945 351.588 79.0646C352.115 78.8464 352.594 78.5265 352.997 78.1232C353.401 77.7199 353.721 77.241 353.939 76.714C354.269 75.9174 354.269 74.906 354.269 72.8831C354.269 70.8603 354.269 69.8488 353.939 69.0523C353.721 68.5253 353.401 68.0464 352.997 67.6431C352.594 67.2397 352.115 66.9199 351.588 66.7017C350.792 66.3718 349.78 66.3718 347.757 66.3718H315.201H339.076C341.098 66.3718 342.11 66.3718 342.906 66.0419C343.433 65.8237 343.912 65.5038 344.316 65.1005C344.719 64.6972 345.039 64.2183 345.257 63.6913C345.587 62.8947 345.587 61.8833 345.587 59.8605C345.587 57.8376 345.587 56.8262 345.257 56.0296C345.039 55.5026 344.719 55.0237 344.316 54.6204C343.912 54.2171 343.433 53.8972 342.906 53.679C342.11 53.3491 341.098 53.3491 339.076 53.3491H315.201" stroke="white" stroke-width="2.07441" stroke-linecap="round" stroke-linejoin="round"/>
<path d="M336.906 66.3716V79.8066C336.906 82.2267 336.906 83.4356 336.198 83.6917C335.489 83.9522 334.688 83.0319 333.088 81.1957L332.042 79.9976C331.276 79.1186 330.894 78.6802 330.395 78.6802C329.895 78.6802 329.513 79.1186 328.745 79.9976L327.703 81.1957C326.101 83.0319 325.301 83.9522 324.593 83.6917C323.883 83.4356 323.883 82.2267 323.883 79.8066V66.3716" stroke="white" stroke-width="2.07441" stroke-linecap="round" stroke-linejoin="round"/>
<rect x="157.651" y="61.6521" width="92.461" height="92.461" rx="46.2305" fill="#EEF0FE"/>
<rect x="157.651" y="61.6521" width="92.461" height="92.461" rx="46.2305" stroke="#DFE3FD" stroke-width="1.30227"/>
<rect x="164.813" y="68.8152" width="78.136" height="78.136" rx="39.068" fill="#D03D46"/>
<path d="M205.093 88.3093C204.303 88.042 203.447 88.042 202.657 88.3093L187.95 93.2904C187.471 93.446 187.048 93.7383 186.733 94.1313C186.418 94.5242 186.225 95.0007 186.177 95.5021C185.446 104.674 186.715 111.457 189.73 116.581C192.647 121.541 197.314 125.146 203.875 127.833C210.443 125.146 215.114 121.541 218.031 116.581C221.048 111.459 222.317 104.674 221.586 95.5021C221.538 95.0007 221.345 94.5242 221.03 94.1313C220.715 93.7383 220.292 93.446 219.813 93.2904L205.093 88.3093ZM201.613 85.2272C203.08 84.73 204.669 84.7293 206.137 85.2251L220.857 90.2062C221.938 90.5663 222.89 91.235 223.596 92.1297C224.302 93.0245 224.73 94.1063 224.828 95.2417C225.595 104.813 224.308 112.336 220.837 118.233C217.356 124.148 211.806 128.213 204.472 131.102C204.088 131.253 203.662 131.253 203.278 131.102C195.951 128.213 190.403 124.148 186.924 118.233C183.455 112.336 182.168 104.811 182.932 95.2417C183.031 94.1063 183.459 93.0245 184.165 92.1297C184.871 91.235 185.823 90.5663 186.904 90.2062L201.613 85.2272Z" fill="white"/>
<path d="M203.883 98.6585C201.61 98.6585 199.781 100.488 199.781 102.728C199.781 104.968 201.613 106.798 203.883 106.798C206.153 106.798 207.985 104.968 207.985 102.728C207.984 102.191 207.876 101.66 207.669 101.165C207.462 100.67 207.159 100.22 206.778 99.8421C206.397 99.4641 205.945 99.165 205.449 98.9619C204.952 98.7588 204.42 98.6557 203.883 98.6585ZM196.525 102.728C196.527 101.764 196.718 100.809 197.089 99.919C197.459 99.0288 198.002 98.2204 198.685 97.54C199.369 96.8597 200.18 96.3207 201.071 95.954C201.963 95.5873 202.919 95.4 203.883 95.4029C204.847 95.4 205.803 95.5873 206.694 95.954C207.586 96.3207 208.397 96.8597 209.081 97.54C209.764 98.2204 210.306 99.0288 210.677 99.919C211.048 100.809 211.239 101.764 211.241 102.728C211.239 103.692 211.048 104.647 210.677 105.537C210.306 106.427 209.764 107.236 209.081 107.916C208.397 108.597 207.586 109.136 206.694 109.502C205.803 109.869 204.847 110.056 203.883 110.053C202.919 110.056 201.963 109.869 201.071 109.502C200.18 109.136 199.369 108.597 198.685 107.916C198.002 107.236 197.459 106.427 197.089 105.537C196.718 104.647 196.527 103.692 196.525 102.728ZM198.468 113.941C196.623 114.249 195.214 114.917 194.25 115.885C193.187 116.945 192.488 118.533 192.488 120.906C192.488 121.337 192.317 121.751 192.011 122.057C191.706 122.362 191.292 122.533 190.86 122.533C190.429 122.533 190.014 122.362 189.709 122.057C189.404 121.751 189.232 121.337 189.232 120.906C189.232 117.852 190.159 115.371 191.945 113.583C193.71 111.82 196.137 110.904 198.819 110.607L199.633 110.516L200.187 111.11L200.23 111.154C200.269 111.193 200.335 111.253 200.428 111.334C200.612 111.495 200.886 111.714 201.233 111.931C201.943 112.376 202.861 112.766 203.883 112.766C204.903 112.766 205.823 112.376 206.531 111.931C206.891 111.705 207.229 111.444 207.538 111.152L207.577 111.113L207.579 111.11L208.133 110.516L208.947 110.607C211.629 110.904 214.056 111.82 215.818 113.58C217.607 115.371 218.533 117.852 218.533 120.906C218.533 121.337 218.362 121.751 218.057 122.057C217.751 122.362 217.337 122.533 216.906 122.533C216.474 122.533 216.06 122.362 215.755 122.057C215.449 121.751 215.278 121.337 215.278 120.906C215.278 118.533 214.577 116.945 213.515 115.885C212.552 114.92 211.145 114.249 209.298 113.941C208.969 114.21 208.624 114.459 208.265 114.687C207.247 115.328 205.726 116.022 203.883 116.022C202.04 116.022 200.519 115.328 199.499 114.687C199.141 114.459 198.796 114.209 198.468 113.941Z" fill="white"/>
<rect x="61.6511" y="157.652" width="92.461" height="92.461" rx="46.2305" fill="#EEF0FE"/>
<rect x="61.6511" y="157.652" width="92.461" height="92.461" rx="46.2305" stroke="#DFE3FD" stroke-width="1.30227"/>
<rect x="68.814" y="164.814" width="78.136" height="78.136" rx="39.068" fill="#19D6D6"/>
<path d="M89.1377 203.883C89.1377 196.814 89.1377 193.279 91.3346 191.084C93.5315 188.889 97.0649 188.887 104.133 188.887H111.631C118.7 188.887 122.235 188.887 124.43 191.084C126.625 193.28 126.627 196.814 126.627 203.883V207.631C126.627 214.7 126.627 218.235 124.43 220.43C122.233 222.625 118.7 222.627 111.631 222.627H104.133C97.0649 222.627 93.5296 222.627 91.3346 220.43C89.1396 218.234 89.1377 214.7 89.1377 207.631V203.883Z" stroke="white" stroke-width="2.81171"/>
<path d="M98.5103 188.886V186.074M117.255 188.886V186.074M90.0752 198.259H125.69" stroke="white" stroke-width="2.81171" stroke-linecap="round"/>
<path d="M119.128 213.255C119.128 213.752 118.931 214.229 118.579 214.58C118.228 214.932 117.751 215.129 117.254 215.129C116.757 215.129 116.28 214.932 115.929 214.58C115.577 214.229 115.38 213.752 115.38 213.255C115.38 212.758 115.577 212.281 115.929 211.929C116.28 211.578 116.757 211.38 117.254 211.38C117.751 211.38 118.228 211.578 118.579 211.929C118.931 212.281 119.128 212.758 119.128 213.255ZM119.128 205.757C119.128 206.254 118.931 206.731 118.579 207.082C118.228 207.434 117.751 207.631 117.254 207.631C116.757 207.631 116.28 207.434 115.929 207.082C115.577 206.731 115.38 206.254 115.38 205.757C115.38 205.26 115.577 204.783 115.929 204.431C116.28 204.08 116.757 203.882 117.254 203.882C117.751 203.882 118.228 204.08 118.579 204.431C118.931 204.783 119.128 205.26 119.128 205.757ZM109.756 213.255C109.756 213.752 109.559 214.229 109.207 214.58C108.856 214.932 108.379 215.129 107.882 215.129C107.384 215.129 106.908 214.932 106.556 214.58C106.205 214.229 106.007 213.752 106.007 213.255C106.007 212.758 106.205 212.281 106.556 211.929C106.908 211.578 107.384 211.38 107.882 211.38C108.379 211.38 108.856 211.578 109.207 211.929C109.559 212.281 109.756 212.758 109.756 213.255ZM109.756 205.757C109.756 206.254 109.559 206.731 109.207 207.082C108.856 207.434 108.379 207.631 107.882 207.631C107.384 207.631 106.908 207.434 106.556 207.082C106.205 206.731 106.007 206.254 106.007 205.757C106.007 205.26 106.205 204.783 106.556 204.431C106.908 204.08 107.384 203.882 107.882 203.882C108.379 203.882 108.856 204.08 109.207 204.431C109.559 204.783 109.756 205.26 109.756 205.757ZM100.384 213.255C100.384 213.752 100.186 214.229 99.8347 214.58C99.4832 214.932 99.0064 215.129 98.5092 215.129C98.0121 215.129 97.5353 214.932 97.1838 214.58C96.8323 214.229 96.6348 213.752 96.6348 213.255C96.6348 212.758 96.8323 212.281 97.1838 211.929C97.5353 211.578 98.0121 211.38 98.5092 211.38C99.0064 211.38 99.4832 211.578 99.8347 211.929C100.186 212.281 100.384 212.758 100.384 213.255ZM100.384 205.757C100.384 206.254 100.186 206.731 99.8347 207.082C99.4832 207.434 99.0064 207.631 98.5092 207.631C98.0121 207.631 97.5353 207.434 97.1838 207.082C96.8323 206.731 96.6348 206.254 96.6348 205.757C96.6348 205.26 96.8323 204.783 97.1838 204.431C97.5353 204.08 98.0121 203.882 98.5092 203.882C99.0064 203.882 99.4832 204.08 99.8347 204.431C100.186 204.783 100.384 205.26 100.384 205.757Z" fill="white"/>
<rect x="26.6511" y="288.036" width="92.461" height="92.461" rx="46.2305" fill="#EEF0FE"/>
<rect x="26.6511" y="288.036" width="92.461" height="92.461" rx="46.2305" stroke="#DFE3FD" stroke-width="1.30227"/>
<rect x="33.8135" y="295.198" width="78.136" height="78.136" rx="39.068" fill="#B0ADFE"/>
<path d="M72.8812 355.972C84.8683 355.972 94.5857 346.254 94.5857 334.267C94.5857 322.28 84.8683 312.563 72.8812 312.563C60.8942 312.563 51.1768 322.28 51.1768 334.267C51.1768 346.254 60.8942 355.972 72.8812 355.972Z" stroke="white" stroke-width="3.32494" stroke-linecap="round" stroke-linejoin="round"/>
<path d="M79.3927 342.949L74.1532 337.71C73.3391 336.896 72.8816 335.792 72.8813 334.641V321.245" stroke="white" stroke-width="3.32494" stroke-linecap="round" stroke-linejoin="round"/>
<rect x="61.6511" y="418.652" width="92.461" height="92.461" rx="46.2305" fill="#EEF0FE"/>
<rect x="61.6511" y="418.652" width="92.461" height="92.461" rx="46.2305" stroke="#DFE3FD" stroke-width="1.30227"/>
<rect x="68.8135" y="425.814" width="78.136" height="78.136" rx="39.068" fill="#4D5DDB"/>
<g clip-path="url(#clip0_1_1035)">
<path d="M108.712 486.877C103.943 481.627 97.4757 478.226 90.4474 477.273C89.6474 477.184 88.9086 476.802 88.3735 476.201C87.8384 475.6 87.545 474.822 87.5499 474.017V447.809C87.5499 447.343 87.65 446.882 87.8434 446.458C88.0368 446.034 88.319 445.657 88.6708 445.351C89.0227 445.046 89.436 444.819 89.8829 444.687C90.3299 444.555 90.7999 444.521 91.2613 444.586C97.982 445.701 104.13 449.051 108.712 454.092M108.712 486.877V454.092M108.712 486.877C113.48 481.627 119.948 478.226 126.976 477.273C127.776 477.184 128.515 476.802 129.05 476.201C129.585 475.6 129.878 474.822 129.874 474.017V447.809C129.873 447.343 129.773 446.882 129.58 446.458C129.387 446.034 129.104 445.657 128.753 445.351C128.401 445.046 127.987 444.819 127.54 444.687C127.094 444.555 126.624 444.521 126.162 444.586C119.441 445.701 113.293 449.051 108.712 454.092" stroke="white" stroke-width="3.47271" stroke-linecap="round" stroke-linejoin="round"/>
</g>
<rect x="157.651" y="514.652" width="92.461" height="92.461" rx="46.2305" fill="#EEF0FE"/>
<rect x="157.651" y="514.652" width="92.461" height="92.461" rx="46.2305" stroke="#DFE3FD" stroke-width="1.30227"/>
<rect x="164.813" y="521.814" width="78.136" height="78.136" rx="39.068" fill="#21CE9E"/>
<path d="M216.579 541.457H192.487C190.269 541.457 188.472 543.255 188.472 545.472V577.595C188.472 579.812 190.269 581.61 192.487 581.61H216.579C218.797 581.61 220.594 579.812 220.594 577.595V545.472C220.594 543.255 218.797 541.457 216.579 541.457Z" stroke="white" stroke-width="4.01532" stroke-linecap="round" stroke-linejoin="round"/>
<path d="M196.503 549.487H212.564M212.564 565.548V573.579M212.564 557.517H212.584M204.534 557.517H204.554M196.503 557.517H196.523M204.534 565.548H204.554M196.503 565.548H196.523M204.534 573.579H204.554M196.503 573.579H196.523" stroke="white" stroke-width="4.01532" stroke-linecap="round" stroke-linejoin="round"/>
<rect x="288.651" y="549.652" width="92.461" height="92.461" rx="46.2305" fill="#EEF0FE"/>
<rect x="288.651" y="549.652" width="92.461" height="92.461" rx="46.2305" stroke="#DFE3FD" stroke-width="1.30228"/>
<rect x="295.814" y="556.814" width="78.136" height="78.136" rx="39.068" fill="#FFC658"/>
<path d="M322.519 591.76V581.45M332.829 591.76V581.45M343.138 591.76V582.481M320.482 606.193C317.554 606.193 316.09 606.193 315.181 605.286C314.271 604.381 314.271 602.923 314.271 600.008V587.636C314.271 584.72 314.271 583.263 315.181 582.357C316.09 581.452 317.554 581.45 320.482 581.45H335.091C342.252 581.45 345.833 581.45 348.576 582.906C350.592 583.978 352.275 585.586 353.434 587.549C355.009 590.215 355.157 593.778 355.454 600.907C355.537 602.828 355.578 603.789 355.201 604.515C354.924 605.051 354.5 605.492 353.974 605.789C353.26 606.193 352.295 606.193 350.365 606.193H349.324M328.705 606.193H341.076" stroke="white" stroke-width="3.09291" stroke-linecap="round" stroke-linejoin="round"/>
<path d="M314.256 591.762H341.82C343.112 591.762 343.552 592.519 344.541 593.706C345.68 594.82 346.449 595.601 347.511 595.76C348.995 595.983 354.488 595.871 354.488 595.871M324.582 610.317C325.676 610.317 326.725 609.883 327.498 609.109C328.271 608.336 328.706 607.287 328.706 606.193C328.706 605.1 328.271 604.051 327.498 603.277C326.725 602.504 325.676 602.07 324.582 602.07C323.488 602.07 322.439 602.504 321.666 603.277C320.893 604.051 320.458 605.1 320.458 606.193C320.458 607.287 320.893 608.336 321.666 609.109C322.439 609.883 323.488 610.317 324.582 610.317ZM345.201 610.317C346.295 610.317 347.344 609.883 348.117 609.109C348.891 608.336 349.325 607.287 349.325 606.193C349.325 605.1 348.891 604.051 348.117 603.277C347.344 602.504 346.295 602.07 345.201 602.07C344.107 602.07 343.059 602.504 342.285 603.277C341.512 604.051 341.077 605.1 341.077 606.193C341.077 607.287 341.512 608.336 342.285 609.109C343.059 609.883 344.107 610.317 345.201 610.317Z" stroke="white" stroke-width="3.09291" stroke-linecap="round" stroke-linejoin="round"/>
<rect x="419.651" y="514.652" width="92.461" height="92.461" rx="46.2305" fill="#EEF0FE"/>
<rect x="419.651" y="514.652" width="92.461" height="92.461" rx="46.2305" stroke="#DFE3FD" stroke-width="1.30227"/>
<rect x="426.813" y="521.814" width="78.136" height="78.136" rx="39.068" fill="#0EA5E8"/>
<path d="M481.648 568.173H450.113M481.648 568.173V552.634C481.648 548.745 481.648 546.803 480.44 545.595C479.234 544.386 477.29 544.386 473.401 544.386H458.361C454.472 544.386 452.53 544.386 451.322 545.595C450.113 546.803 450.113 548.745 450.113 552.634V568.173M481.648 568.173L485.244 571.884L485.426 572.074C486.087 572.8 486.468 573.739 486.498 574.721L486.5 574.983C486.5 575.292 486.5 575.445 486.492 575.575C486.429 576.577 486.002 577.521 485.292 578.231C484.582 578.941 483.638 579.367 482.636 579.431C482.439 579.439 482.242 579.442 482.044 579.439H449.718C449.408 579.439 449.256 579.439 449.126 579.431C448.124 579.367 447.179 578.941 446.47 578.231C445.76 577.521 445.333 576.577 445.27 575.575C445.262 575.445 445.262 575.29 445.262 574.985L445.264 574.723C445.294 573.741 445.675 572.802 446.336 572.076L446.517 571.886L450.113 568.173M460.726 574.284H471.036" stroke="white" stroke-width="3.09288" stroke-linecap="round"/>
<path d="M467.427 550.057C467.427 550.467 467.264 550.86 466.974 551.15C466.684 551.44 466.291 551.603 465.88 551.603C465.47 551.603 465.077 551.44 464.787 551.15C464.497 550.86 464.334 550.467 464.334 550.057C464.334 549.647 464.497 549.253 464.787 548.963C465.077 548.673 465.47 548.51 465.88 548.51C466.291 548.51 466.684 548.673 466.974 548.963C467.264 549.253 467.427 549.647 467.427 550.057Z" fill="white"/>
<defs>
<clipPath id="clip0_1_1035">
<rect width="45.5793" height="45.5793" fill="white" transform="translate(85.9233 442.924)"/>
</clipPath>
</defs>
</svg>
