<svg width="37" height="36" viewBox="0 0 37 36" fill="none" xmlns="http://www.w3.org/2000/svg">
<path d="M6.20413 9.438C8.30863 7.1565 11.4931 6 15.6676 6H17.1676V10.2285L15.9616 10.47C13.9066 10.881 12.4771 11.6895 11.7121 12.876C11.3128 13.5151 11.0865 14.247 11.0551 15H15.6676C16.0655 15 16.447 15.158 16.7283 15.4393C17.0096 15.7206 17.1676 16.1022 17.1676 16.5V27C17.1676 28.6545 15.8221 30 14.1676 30H5.16763C4.76981 30 4.38828 29.842 4.10697 29.5607C3.82567 29.2794 3.66763 28.8978 3.66763 28.5V21L3.67213 16.6215C3.65863 16.455 3.37363 12.51 6.20413 9.438ZM30.6676 30H21.6676C21.2698 30 20.8883 29.842 20.607 29.5607C20.3257 29.2794 20.1676 28.8978 20.1676 28.5V21L20.1721 16.6215C20.1586 16.455 19.8736 12.51 22.7041 9.438C24.8086 7.1565 27.9931 6 32.1676 6H33.6676V10.2285L32.4616 10.47C30.4066 10.881 28.9771 11.6895 28.2121 12.876C27.8128 13.5151 27.5865 14.247 27.5551 15H32.1676C32.5655 15 32.947 15.158 33.2283 15.4393C33.5096 15.7206 33.6676 16.1022 33.6676 16.5V27C33.6676 28.6545 32.3221 30 30.6676 30Z" fill="white"/>
</svg>
