<svg width="450" height="450" viewBox="0 0 450 450" fill="none" xmlns="http://www.w3.org/2000/svg">
<g filter="url(#filter0_f_5_1273)">
<circle cx="137.896" cy="368.464" r="5.07292" fill="#5D68F2"/>
<circle cx="155.651" cy="350.708" r="5.07292" fill="#5D68F2"/>
<circle cx="123.945" cy="354.513" r="5.07292" fill="#5D68F2"/>
<circle cx="141.701" cy="336.758" r="5.07292" fill="#5D68F2"/>
<circle cx="109.995" cy="340.563" r="5.07292" fill="#5D68F2"/>
<circle cx="127.75" cy="322.807" r="5.07292" fill="#5D68F2"/>
<circle cx="96.0443" cy="326.612" r="5.07292" fill="#5D68F2"/>
<circle cx="113.799" cy="308.857" r="5.07292" fill="#5D68F2"/>
<circle cx="82.0937" cy="312.661" r="5.07292" fill="#5D68F2"/>
<circle cx="120.141" cy="386.219" r="5.07292" fill="#5D68F2"/>
<circle cx="106.19" cy="372.268" r="5.07292" fill="#5D68F2"/>
<circle cx="92.2397" cy="358.318" r="5.07292" fill="#5D68F2"/>
<circle cx="78.289" cy="344.367" r="5.07292" fill="#5D68F2"/>
<circle cx="64.3385" cy="330.417" r="5.07292" fill="#5D68F2"/>
<circle cx="102.385" cy="403.974" r="5.07292" fill="#5D68F2"/>
<circle cx="88.435" cy="390.024" r="5.07292" fill="#5D68F2"/>
<circle cx="74.4843" cy="376.073" r="5.07292" fill="#5D68F2"/>
<circle cx="60.5339" cy="362.122" r="5.07292" fill="#5D68F2"/>
<circle cx="46.5834" cy="348.172" r="5.07292" fill="#5D68F2"/>
<circle cx="84.6303" cy="421.729" r="5.07292" fill="#5D68F2"/>
<circle cx="70.6796" cy="407.778" r="5.07292" fill="#5D68F2"/>
<circle cx="56.7292" cy="393.828" r="5.07292" fill="#5D68F2"/>
<circle cx="42.7787" cy="379.878" r="5.07292" fill="#5D68F2"/>
<circle cx="28.828" cy="365.927" r="5.07292" fill="#5D68F2"/>
<circle cx="66.8749" cy="439.485" r="5.07292" fill="#5D68F2"/>
<circle cx="52.9245" cy="425.534" r="5.07292" fill="#5D68F2"/>
<circle cx="38.974" cy="411.583" r="5.07292" fill="#5D68F2"/>
<circle cx="25.0234" cy="397.633" r="5.07292" fill="#5D68F2"/>
<circle cx="11.0729" cy="383.682" r="5.07292" fill="#5D68F2"/>
<circle cx="99.849" cy="294.906" r="5.07292" fill="#5D68F2"/>
<circle cx="173.406" cy="332.953" r="5.07292" fill="#5D68F2"/>
<circle cx="159.456" cy="319.003" r="5.07292" fill="#5D68F2"/>
<circle cx="145.505" cy="305.052" r="5.07292" fill="#5D68F2"/>
<circle cx="131.555" cy="291.102" r="5.07292" fill="#5D68F2"/>
<circle cx="117.604" cy="277.151" r="5.07292" fill="#5D68F2"/>
<circle cx="191.162" cy="315.198" r="5.07292" fill="#5D68F2"/>
<circle cx="177.211" cy="301.247" r="5.07292" fill="#5D68F2"/>
<circle cx="163.26" cy="287.297" r="5.07292" fill="#5D68F2"/>
<circle cx="149.31" cy="273.346" r="5.07292" fill="#5D68F2"/>
<circle cx="135.359" cy="259.396" r="5.07292" fill="#5D68F2"/>
<circle cx="208.917" cy="297.443" r="5.07292" fill="#5D68F2"/>
<circle cx="194.966" cy="283.492" r="5.07292" fill="#5D68F2"/>
<circle cx="181.016" cy="269.542" r="5.07292" fill="#5D68F2"/>
<circle cx="167.065" cy="255.591" r="5.07292" fill="#5D68F2"/>
<circle cx="153.115" cy="241.641" r="5.07292" fill="#5D68F2"/>
<circle cx="226.672" cy="279.688" r="5.07292" fill="#5D68F2"/>
<circle cx="212.721" cy="265.737" r="5.07292" fill="#5D68F2"/>
<circle cx="198.771" cy="251.786" r="5.07292" fill="#5D68F2"/>
<circle cx="184.82" cy="237.836" r="5.07292" fill="#5D68F2"/>
<circle cx="170.87" cy="223.885" r="5.07292" fill="#5D68F2"/>
<circle cx="244.427" cy="261.932" r="5.07292" fill="#5D68F2"/>
<circle cx="230.476" cy="247.982" r="5.07292" fill="#5D68F2"/>
<circle cx="216.526" cy="234.031" r="5.07292" fill="#5D68F2"/>
<circle cx="202.576" cy="220.081" r="5.07292" fill="#5D68F2"/>
<circle cx="188.625" cy="206.13" r="5.07292" fill="#5D68F2"/>
<circle cx="262.182" cy="244.177" r="5.07292" fill="#5D68F2"/>
<circle cx="248.232" cy="230.227" r="5.07292" fill="#5D68F2"/>
<circle cx="234.281" cy="216.276" r="5.07292" fill="#5D68F2"/>
<circle cx="220.331" cy="202.325" r="5.07292" fill="#5D68F2"/>
<circle cx="206.38" cy="188.375" r="5.07292" fill="#5D68F2"/>
<circle cx="279.937" cy="226.422" r="5.07292" fill="#5D68F2"/>
<circle cx="265.987" cy="212.471" r="5.07292" fill="#5D68F2"/>
<circle cx="252.037" cy="198.521" r="5.07292" fill="#5D68F2"/>
<circle cx="238.086" cy="184.57" r="5.07292" fill="#5D68F2"/>
<circle cx="224.135" cy="170.62" r="5.07292" fill="#5D68F2"/>
<circle cx="297.693" cy="208.667" r="5.07292" fill="#5D68F2"/>
<circle cx="283.742" cy="194.716" r="5.07292" fill="#5D68F2"/>
<circle cx="269.792" cy="180.766" r="5.07292" fill="#5D68F2"/>
<circle cx="255.841" cy="166.815" r="5.07292" fill="#5D68F2"/>
<circle cx="241.891" cy="152.864" r="5.07292" fill="#5D68F2"/>
<circle cx="315.448" cy="190.911" r="5.07292" fill="#5D68F2"/>
<circle cx="301.497" cy="176.961" r="5.07292" fill="#5D68F2"/>
<circle cx="287.547" cy="163.01" r="5.07292" fill="#5D68F2"/>
<circle cx="273.596" cy="149.06" r="5.07292" fill="#5D68F2"/>
<circle cx="259.646" cy="135.11" r="5.07292" fill="#5D68F2"/>
<circle cx="333.203" cy="173.156" r="5.07292" fill="#5D68F2"/>
<circle cx="319.253" cy="159.206" r="5.07292" fill="#5D68F2"/>
<circle cx="305.302" cy="145.255" r="5.07292" fill="#5D68F2"/>
<circle cx="291.351" cy="131.305" r="5.07292" fill="#5D68F2"/>
<circle cx="277.401" cy="117.354" r="5.07292" fill="#5D68F2"/>
<circle cx="350.958" cy="155.401" r="5.07292" fill="#5D68F2"/>
<circle cx="337.008" cy="141.45" r="5.07292" fill="#5D68F2"/>
<circle cx="323.057" cy="127.5" r="5.07292" fill="#5D68F2"/>
<circle cx="309.107" cy="113.549" r="5.07292" fill="#5D68F2"/>
<circle cx="295.156" cy="99.5988" r="5.07292" fill="#5D68F2"/>
<circle cx="368.714" cy="137.646" r="5.07292" fill="#5D68F2"/>
<circle cx="354.763" cy="123.695" r="5.07292" fill="#5D68F2"/>
<circle cx="340.812" cy="109.745" r="5.07292" fill="#5D68F2"/>
<circle cx="326.862" cy="95.7941" r="5.07292" fill="#5D68F2"/>
<circle cx="312.912" cy="81.8439" r="5.07292" fill="#5D68F2"/>
<circle cx="386.469" cy="119.891" r="5.07292" fill="#5D68F2"/>
<circle cx="372.518" cy="105.94" r="5.07292" fill="#5D68F2"/>
<circle cx="358.568" cy="91.9894" r="5.07292" fill="#5D68F2"/>
<circle cx="344.617" cy="78.0392" r="5.07292" fill="#5D68F2"/>
<circle cx="330.667" cy="64.0885" r="5.07292" fill="#5D68F2"/>
<circle cx="404.224" cy="102.135" r="5.07292" fill="#5D68F2"/>
<circle cx="390.273" cy="88.1847" r="5.07292" fill="#5D68F2"/>
<circle cx="376.323" cy="74.2345" r="5.07292" fill="#5D68F2"/>
<circle cx="362.372" cy="60.2839" r="5.07292" fill="#5D68F2"/>
<circle cx="348.422" cy="46.3332" r="5.07292" fill="#5D68F2"/>
<circle cx="421.979" cy="84.38" r="5.07292" fill="#5D68F2"/>
<circle cx="408.029" cy="70.4298" r="5.07292" fill="#5D68F2"/>
<circle cx="394.078" cy="56.4792" r="5.07292" fill="#5D68F2"/>
<circle cx="380.128" cy="42.5285" r="5.07292" fill="#5D68F2"/>
<circle cx="366.177" cy="28.5783" r="5.07292" fill="#5D68F2"/>
<circle cx="439.734" cy="66.6252" r="5.07292" fill="#5D68F2"/>
<circle cx="425.784" cy="52.6745" r="5.07292" fill="#5D68F2"/>
<circle cx="411.833" cy="38.7238" r="5.07292" fill="#5D68F2"/>
<circle cx="397.883" cy="24.7736" r="5.07292" fill="#5D68F2"/>
<circle cx="383.932" cy="10.8229" r="5.07292" fill="#5D68F2"/>
</g>
<defs>
<filter id="filter0_f_5_1273" x="0.927083" y="0.677083" width="448.953" height="448.953" filterUnits="userSpaceOnUse" color-interpolation-filters="sRGB">
<feFlood flood-opacity="0" result="BackgroundImageFix"/>
<feBlend mode="normal" in="SourceGraphic" in2="BackgroundImageFix" result="shape"/>
<feGaussianBlur stdDeviation="2.53646" result="effect1_foregroundBlur_5_1273"/>
</filter>
</defs>
</svg>
