<svg width="90" height="20" viewBox="0 0 90 20" fill="none" xmlns="http://www.w3.org/2000/svg">
<path d="M83.9001 10.0853L89.9243 0.742595C90.0129 0.610132 90.0079 0.383337 89.9878 0.214747C89.9745 0.106368 89.9561 0.0521836 89.9461 0.0260923C89.6503 0.0260923 88.6042 0.0160562 86.9097 0L82.1255 7.34972L77.3512 0L74.3149 0.0260923C74.3049 0.0501766 74.2865 0.104361 74.2731 0.214747C74.2531 0.383337 74.248 0.612139 74.3316 0.736575L80.3508 10.0873L74.3617 19.3156C74.3166 19.3838 74.2898 19.4842 74.2764 19.6187C74.2648 19.7511 74.2764 19.8575 74.3149 19.9458C74.3149 19.9458 74.3149 19.9458 74.3149 19.9478L77.5384 20L82.1238 12.845L86.7209 20L89.9327 19.9478C89.9711 19.8595 89.9828 19.7511 89.9711 19.6207C89.9577 19.4822 89.9293 19.3738 89.8892 19.3036L83.8985 10.0913L83.9001 10.0853Z" fill="black"/>
<path d="M16.4358 0.122425H8.21579C7.24657 0.122425 6.31913 0.307069 5.45853 0.672348C4.59793 1.03562 3.83425 1.53336 3.18755 2.14952C2.5375 2.76969 1.96432 3.51028 1.48473 4.35524C1.00346 5.2022 0.634154 6.10738 0.388507 7.04265C0.14286 7.97993 0.0125168 8.97541 0.000819334 10.003C-0.0108781 11.0286 0.102754 12.0341 0.336704 12.9895C0.570653 13.9388 0.965025 14.8741 1.50812 15.7672C2.05456 16.6643 2.74137 17.4611 3.55017 18.1355C4.0448 18.5449 4.52774 18.8761 4.98394 19.1189C5.43346 19.3598 5.92308 19.5344 6.43944 19.6387C6.96917 19.7471 7.43707 19.8133 7.82977 19.8374C8.2325 19.8615 8.79732 19.8736 9.52424 19.8736H16.4291C16.4291 19.4782 16.4257 19.1651 16.4241 18.9323C16.4207 18.6332 16.399 18.3 16.3606 17.9348C16.3138 17.4892 16.2653 17.3066 16.2419 17.2383C16.2135 17.1601 16.15 17.0216 16.0013 16.8189C15.9044 16.6864 15.8041 16.6001 15.7072 16.566C15.5518 16.5118 15.3262 16.4516 15.0371 16.3874C14.7497 16.3251 14.4455 16.287 14.133 16.279C13.8022 16.2689 13.3777 16.2689 12.8597 16.279C11.8153 16.289 10.2712 16.293 8.2208 16.293C7.39864 16.293 6.64331 16.1124 5.97823 15.7531C5.3098 15.3939 4.75668 14.9082 4.33724 14.3141C3.92282 13.728 3.6003 13.0497 3.38139 12.301C3.16248 11.5564 3.05219 10.7837 3.05219 10.005C3.05219 9.22629 3.16248 8.45359 3.38139 7.70898C3.6003 6.95835 3.92282 6.28199 4.33724 5.69594C4.75835 5.09985 5.31147 4.61615 5.97823 4.2569C6.64331 3.89764 7.39864 3.71701 8.2208 3.71701C8.423 3.71701 9.23681 3.74711 10.6589 3.80532C12.0609 3.86352 13.219 3.87155 14.103 3.82739C15.1958 3.77521 15.5735 3.61064 15.7005 3.51831C15.8559 3.40993 15.9779 3.27947 16.0765 3.11289C16.1851 2.93226 16.267 2.75564 16.3205 2.58705C16.3739 2.41445 16.4107 2.19568 16.4324 1.93477C16.4558 1.65178 16.4675 1.41294 16.4675 1.22228C16.4675 1.03161 16.4608 0.760658 16.4491 0.43552C16.4458 0.32112 16.4408 0.216755 16.4391 0.122425H16.4358Z" fill="black"/>
<path d="M5.10092 8.18665C4.95553 8.18665 4.83856 8.24285 4.73328 8.36729C4.63135 8.48771 4.58289 8.62218 4.58289 8.79277V11.2052C4.58289 11.3758 4.62968 11.5123 4.73328 11.6307C4.83856 11.7531 4.95386 11.8113 5.10092 11.8113H11.4109C11.5546 11.8113 11.6682 11.7551 11.7685 11.6347C11.8687 11.5143 11.9155 11.3778 11.9155 11.2052V8.79277C11.9155 8.62017 11.8687 8.48369 11.7685 8.36327C11.6682 8.24285 11.5546 8.18665 11.4109 8.18665H5.10092Z" fill="black"/>
<path d="M71.7565 0.122425H63.5365C62.5673 0.122425 61.6398 0.307069 60.7792 0.672348C59.9186 1.03562 59.155 1.53336 58.5083 2.14952C57.8582 2.76969 57.285 3.51028 56.8054 4.35524C56.3242 5.2022 55.9549 6.10738 55.7092 7.04265C55.4636 7.97993 55.3332 8.97541 55.3215 10.003C55.3098 11.0286 55.4235 12.0341 55.6574 12.9895C55.8914 13.9388 56.2857 14.8741 56.8288 15.7672C57.3753 16.6643 58.0621 17.4611 58.8709 18.1355C59.3655 18.5449 59.8485 18.8761 60.3047 19.1189C60.7542 19.3598 61.2438 19.5344 61.7602 19.6387C62.2899 19.7471 62.7578 19.8133 63.1505 19.8374C63.5532 19.8615 64.118 19.8736 64.8449 19.8736H71.7498C71.7498 19.4782 71.7465 19.1651 71.7448 18.9323C71.7414 18.6332 71.7197 18.3 71.6813 17.9348C71.6345 17.4892 71.586 17.3066 71.5626 17.2383C71.5342 17.1601 71.4707 17.0216 71.322 16.8189C71.2251 16.6864 71.1248 16.6001 71.0279 16.566C70.8725 16.5118 70.6469 16.4516 70.3578 16.3874C70.0704 16.3251 69.7662 16.287 69.4538 16.279C69.1229 16.2689 68.6984 16.2689 68.1804 16.279C67.136 16.289 65.5919 16.293 63.5415 16.293C62.7193 16.293 61.964 16.1124 61.2989 15.7531C60.6305 15.3939 60.0774 14.9082 59.658 14.3141C59.2435 13.728 58.921 13.0497 58.7021 12.301C58.4832 11.5564 58.3729 10.7837 58.3729 10.005C58.3729 9.22629 58.4832 8.45359 58.7021 7.70898C58.921 6.95835 59.2435 6.28199 59.658 5.69594C60.0791 5.09985 60.6322 4.61615 61.2989 4.2569C61.964 3.89764 62.7193 3.71701 63.5415 3.71701C63.7437 3.71701 64.5575 3.74711 65.9796 3.80532C67.3816 3.86352 68.5397 3.87155 69.4237 3.82739C70.5166 3.77521 70.8942 3.61064 71.0212 3.51831C71.1766 3.40993 71.2986 3.27947 71.3972 3.11289C71.5058 2.93226 71.5877 2.75564 71.6412 2.58705C71.6947 2.41445 71.7314 2.19568 71.7531 1.93477C71.7765 1.65178 71.7882 1.41294 71.7882 1.22228C71.7882 1.03161 71.7815 0.760658 71.7699 0.43552C71.7648 0.32112 71.7615 0.216755 71.7598 0.122425H71.7565Z" fill="black"/>
<path d="M60.4216 8.18665C60.2762 8.18665 60.1593 8.24285 60.054 8.36729C59.9521 8.48771 59.9036 8.62218 59.9036 8.79277V11.2052C59.9036 11.3758 59.9504 11.5123 60.054 11.6307C60.1593 11.7531 60.2746 11.8113 60.4216 11.8113H66.7316C66.8753 11.8113 66.9889 11.7551 67.0892 11.6347C67.1895 11.5143 67.2362 11.3778 67.2362 11.2052V8.79277C67.2362 8.62017 67.1895 8.48369 67.0892 8.36327C66.9889 8.24285 66.8753 8.18665 66.7316 8.18665H60.4216Z" fill="black"/>
<path d="M35.3021 9.50527L35.0682 9.25841L35.2436 8.94129C35.6464 8.21074 35.8954 7.3999 35.999 6.55494C36.0942 5.71801 36.0357 4.90918 35.8302 4.15254C35.618 3.38585 35.2955 2.68339 34.8777 2.0572C34.4666 1.43302 33.9402 0.939287 33.3019 0.569995C32.6635 0.200702 31.9684 0.0160542 31.2281 0.0160542H19.0477V1.84646C19.0477 2.25991 19.1429 2.62117 19.3418 2.93828C19.5323 3.26342 19.7662 3.46613 20.0603 3.5725L20.3243 3.66884V19.4601C20.3243 19.6006 20.3611 19.715 20.4497 19.8214C20.5382 19.9277 20.6335 19.9799 20.7572 19.9799H31.9182C32.5917 19.9799 33.2451 19.8133 33.86 19.4962C34.4833 19.1791 35.0181 18.7396 35.4659 18.2117C35.9121 17.6739 36.2714 17.0236 36.5354 16.285C36.7994 15.5464 36.9381 14.7617 36.9381 13.9528C36.9381 13.0998 36.7911 12.281 36.5053 11.5063C36.2129 10.7396 35.8085 10.0712 35.3038 9.50728L35.3021 9.50527ZM23.349 3.66081H31.2281C31.7043 3.66081 32.1288 3.87155 32.4814 4.28499C32.8323 4.70848 33.0094 5.21024 33.0094 5.78224C33.0094 6.35424 32.834 6.86402 32.4897 7.28751C32.1388 7.71099 31.7194 7.92173 31.2297 7.92173H23.3507V3.66081H23.349ZM33.3236 15.6327C32.9359 16.0983 32.458 16.3372 31.9165 16.3372H23.349V11.5665H31.9165C32.458 11.5665 32.9359 11.8033 33.3236 12.2709C33.7113 12.7366 33.9018 13.3006 33.9018 13.9528C33.9018 14.6051 33.7113 15.1671 33.3236 15.6347V15.6327Z" fill="black"/>
<path d="M38.2332 1.47115C38.2332 2.74159 39.0938 3.77521 40.1516 3.77521H44.9592L44.9459 19.3557C44.9459 19.4982 44.9843 19.6066 45.0712 19.709C45.1598 19.8133 45.255 19.8595 45.3787 19.8595H47.5193C47.6396 19.8595 47.7315 19.8133 47.8168 19.713C47.902 19.6106 47.9387 19.5003 47.9387 19.3557V3.77521H52.7347C53.7925 3.77521 54.6531 2.74159 54.6531 1.47115V0.136477H38.2315V1.47115H38.2332Z" fill="black"/>
</svg>
