<svg width="90" height="20" viewBox="0 0 90 20" fill="none" xmlns="http://www.w3.org/2000/svg">
<path d="M83.9001 10.0853L89.9243 0.742595C90.0129 0.610132 90.0079 0.383337 89.9878 0.214747C89.9745 0.106368 89.9561 0.0521836 89.9461 0.0260923C89.6503 0.0260923 88.6042 0.0160562 86.9097 0L82.1255 7.34972L77.3512 0L74.3149 0.0260923C74.3049 0.0501766 74.2865 0.104361 74.2731 0.214747C74.2531 0.383337 74.2481 0.612139 74.3316 0.736575L80.3508 10.0873L74.3617 19.3156C74.3166 19.3838 74.2898 19.4842 74.2765 19.6187C74.2648 19.7511 74.2765 19.8575 74.3149 19.9458C74.3149 19.9458 74.3149 19.9458 74.3149 19.9478L77.5384 20L82.1238 12.845L86.7209 20L89.9327 19.9478C89.9711 19.8595 89.9828 19.7511 89.9711 19.6207C89.9578 19.4822 89.9294 19.3738 89.8893 19.3036L83.8985 10.0913L83.9001 10.0853Z" fill="white"/>
<path d="M16.4358 0.122314H8.21579C7.24657 0.122314 6.31913 0.306959 5.45853 0.672237C4.59793 1.03551 3.83425 1.53325 3.18755 2.14941C2.5375 2.76958 1.96432 3.51017 1.48473 4.35513C1.00346 5.20209 0.634154 6.10726 0.388507 7.04254C0.14286 7.97982 0.0125168 8.9753 0.000819334 10.0029C-0.0108781 11.0285 0.102754 12.034 0.336704 12.9894C0.570653 13.9387 0.965025 14.8739 1.50812 15.7671C2.05456 16.6642 2.74137 17.461 3.55017 18.1354C4.0448 18.5448 4.52774 18.876 4.98394 19.1188C5.43346 19.3596 5.92308 19.5343 6.43944 19.6386C6.96917 19.747 7.43707 19.8132 7.82977 19.8373C8.2325 19.8614 8.79732 19.8734 9.52424 19.8734H16.4291C16.4291 19.4781 16.4257 19.165 16.4241 18.9322C16.4207 18.6331 16.399 18.2999 16.3606 17.9347C16.3138 17.4891 16.2653 17.3065 16.2419 17.2382C16.2135 17.1599 16.15 17.0215 16.0013 16.8188C15.9044 16.6863 15.8041 16.6 15.7072 16.5659C15.5518 16.5117 15.3262 16.4515 15.0371 16.3872C14.7497 16.325 14.4455 16.2869 14.133 16.2789C13.8022 16.2688 13.3777 16.2688 12.8597 16.2789C11.8153 16.2889 10.2712 16.2929 8.2208 16.2929C7.39864 16.2929 6.64331 16.1123 5.97823 15.753C5.3098 15.3938 4.75668 14.9081 4.33724 14.314C3.92282 13.7279 3.6003 13.0496 3.38139 12.3009C3.16248 11.5563 3.05219 10.7836 3.05219 10.0049C3.05219 9.22618 3.16248 8.45348 3.38139 7.70887C3.6003 6.95824 3.92282 6.28188 4.33724 5.69583C4.75835 5.09974 5.31147 4.61604 5.97823 4.25679C6.64331 3.89753 7.39864 3.7169 8.2208 3.7169C8.423 3.7169 9.23681 3.747 10.6589 3.80521C12.0609 3.86341 13.219 3.87143 14.103 3.82728C15.1958 3.7751 15.5735 3.61053 15.7005 3.5182C15.8559 3.40982 15.9779 3.27936 16.0765 3.11278C16.1851 2.93215 16.267 2.75553 16.3205 2.58694C16.3739 2.41434 16.4107 2.19557 16.4324 1.93466C16.4558 1.65167 16.4675 1.41283 16.4675 1.22217C16.4675 1.0315 16.4608 0.760548 16.4491 0.43541C16.4458 0.321009 16.4408 0.216645 16.4391 0.122314H16.4358Z" fill="white"/>
<path d="M5.10104 8.18677C4.95566 8.18677 4.83868 8.24297 4.7334 8.3674C4.63147 8.48783 4.58301 8.6223 4.58301 8.79289V11.2053C4.58301 11.3759 4.6298 11.5124 4.7334 11.6308C4.83868 11.7533 4.95398 11.8115 5.10104 11.8115H11.411C11.5547 11.8115 11.6683 11.7553 11.7686 11.6348C11.8689 11.5144 11.9157 11.3779 11.9157 11.2053V8.79289C11.9157 8.62029 11.8689 8.48381 11.7686 8.36339C11.6683 8.24297 11.5547 8.18677 11.411 8.18677H5.10104Z" fill="white"/>
<path d="M71.7566 0.122314H63.5366C62.5674 0.122314 61.6399 0.306959 60.7793 0.672237C59.9187 1.03551 59.1551 1.53325 58.5083 2.14941C57.8583 2.76958 57.2851 3.51017 56.8055 4.35513C56.3243 5.20209 55.955 6.10726 55.7093 7.04254C55.4637 7.97982 55.3333 8.9753 55.3216 10.0029C55.3099 11.0285 55.4236 12.034 55.6575 12.9894C55.8915 13.9387 56.2858 14.8739 56.8289 15.7671C57.3754 16.6642 58.0622 17.461 58.871 18.1354C59.3656 18.5448 59.8485 18.876 60.3047 19.1188C60.7543 19.3596 61.2439 19.5343 61.7602 19.6386C62.29 19.747 62.7579 19.8132 63.1506 19.8373C63.5533 19.8614 64.1181 19.8734 64.845 19.8734H71.7499C71.7499 19.4781 71.7465 19.165 71.7449 18.9322C71.7415 18.6331 71.7198 18.2999 71.6814 17.9347C71.6346 17.4891 71.5861 17.3065 71.5627 17.2382C71.5343 17.1599 71.4708 17.0215 71.3221 16.8188C71.2252 16.6863 71.1249 16.6 71.028 16.5659C70.8726 16.5117 70.647 16.4515 70.3579 16.3872C70.0705 16.325 69.7663 16.2869 69.4538 16.2789C69.123 16.2688 68.6985 16.2688 68.1805 16.2789C67.1361 16.2889 65.592 16.2929 63.5416 16.2929C62.7194 16.2929 61.9641 16.1123 61.299 15.753C60.6306 15.3938 60.0775 14.9081 59.658 14.314C59.2436 13.7279 58.9211 13.0496 58.7022 12.3009C58.4833 11.5563 58.373 10.7836 58.373 10.0049C58.373 9.22618 58.4833 8.45348 58.7022 7.70887C58.9211 6.95824 59.2436 6.28188 59.658 5.69583C60.0792 5.09974 60.6323 4.61604 61.299 4.25679C61.9641 3.89753 62.7194 3.7169 63.5416 3.7169C63.7438 3.7169 64.5576 3.747 65.9797 3.80521C67.3817 3.86341 68.5398 3.87143 69.4238 3.82728C70.5166 3.7751 70.8943 3.61053 71.0213 3.5182C71.1767 3.40982 71.2987 3.27936 71.3973 3.11278C71.5059 2.93215 71.5878 2.75553 71.6413 2.58694C71.6947 2.41434 71.7315 2.19557 71.7532 1.93466C71.7766 1.65167 71.7883 1.41283 71.7883 1.22217C71.7883 1.0315 71.7816 0.760548 71.7699 0.43541C71.7649 0.321009 71.7616 0.216645 71.7599 0.122314H71.7566Z" fill="white"/>
<path d="M60.4218 8.18677C60.2765 8.18677 60.1595 8.24297 60.0542 8.3674C59.9523 8.48783 59.9038 8.6223 59.9038 8.79289V11.2053C59.9038 11.3759 59.9506 11.5124 60.0542 11.6308C60.1595 11.7533 60.2748 11.8115 60.4218 11.8115H66.7318C66.8755 11.8115 66.9891 11.7553 67.0894 11.6348C67.1897 11.5144 67.2365 11.3779 67.2365 11.2053V8.79289C67.2365 8.62029 67.1897 8.48381 67.0894 8.36339C66.9891 8.24297 66.8755 8.18677 66.7318 8.18677H60.4218Z" fill="white"/>
<path d="M35.3023 9.50533L35.0684 9.25847L35.2438 8.94135C35.6466 8.2108 35.8956 7.39996 35.9992 6.555C36.0944 5.71807 36.0359 4.90924 35.8304 4.15259C35.6182 3.38591 35.2956 2.68345 34.8779 2.05726C34.4668 1.43308 33.9404 0.939347 33.3021 0.570054C32.6637 0.200762 31.9686 0.0161133 31.2283 0.0161133H19.0479V1.84652C19.0479 2.25997 19.1431 2.62123 19.342 2.93834C19.5325 3.26348 19.7664 3.46619 20.0605 3.57256L20.3245 3.6689V19.4602C20.3245 19.6007 20.3613 19.7151 20.4499 19.8214C20.5384 19.9278 20.6337 19.98 20.7574 19.98H31.9184C32.5919 19.98 33.2452 19.8134 33.8602 19.4963C34.4835 19.1792 35.0183 18.7396 35.4661 18.2118C35.9123 17.6739 36.2716 17.0236 36.5356 16.2851C36.7996 15.5465 36.9383 14.7617 36.9383 13.9529C36.9383 13.0999 36.7913 12.281 36.5055 11.5063C36.2131 10.7396 35.8087 10.0713 35.304 9.50733L35.3023 9.50533ZM23.3492 3.66087H31.2283C31.7045 3.66087 32.129 3.87161 32.4816 4.28505C32.8325 4.70853 33.0096 5.2103 33.0096 5.7823C33.0096 6.3543 32.8342 6.86408 32.4899 7.28757C32.139 7.71105 31.7196 7.92179 31.2299 7.92179H23.3509V3.66087H23.3492ZM33.3238 15.6328C32.9361 16.0984 32.4582 16.3372 31.9167 16.3372H23.3492V11.5665H31.9167C32.4582 11.5665 32.9361 11.8034 33.3238 12.271C33.7115 12.7366 33.902 13.3006 33.902 13.9529C33.902 14.6052 33.7115 15.1671 33.3238 15.6348V15.6328Z" fill="white"/>
<path d="M38.2331 1.47114C38.2331 2.74159 39.0937 3.77521 40.1515 3.77521H44.9592L44.9458 19.3557C44.9458 19.4982 44.9842 19.6066 45.0711 19.709C45.1597 19.8133 45.2549 19.8595 45.3786 19.8595H47.5192C47.6396 19.8595 47.7315 19.8133 47.8167 19.713C47.9019 19.6106 47.9387 19.5003 47.9387 19.3557V3.77521H52.7346C53.7924 3.77521 54.653 2.74159 54.653 1.47114V0.136475H38.2314V1.47114H38.2331Z" fill="white"/>
</svg>
