<svg width="90" height="20" viewBox="0 0 90 20" fill="none" xmlns="http://www.w3.org/2000/svg">
<path d="M83.9001 10.0853L89.9243 0.742595C90.0129 0.610132 90.0079 0.383337 89.9878 0.214747C89.9745 0.106368 89.9561 0.0521836 89.9461 0.0260923C89.6503 0.0260923 88.6042 0.0160562 86.9097 0L82.1255 7.34972L77.3512 0L74.3149 0.0260923C74.3049 0.0501766 74.2865 0.104361 74.2731 0.214747C74.2531 0.383337 74.2481 0.612139 74.3316 0.736575L80.3508 10.0873L74.3617 19.3156C74.3166 19.3838 74.2898 19.4842 74.2765 19.6187C74.2648 19.7511 74.2765 19.8575 74.3149 19.9458C74.3149 19.9458 74.3149 19.9458 74.3149 19.9478L77.5384 20L82.1238 12.845L86.7209 20L89.9327 19.9478C89.9711 19.8595 89.9828 19.7511 89.9711 19.6207C89.9578 19.4822 89.9294 19.3738 89.8893 19.3036L83.8985 10.0913L83.9001 10.0853Z" fill="black"/>
<path d="M16.4358 0.122437H8.21579C7.24657 0.122437 6.31913 0.307081 5.45853 0.672359C4.59793 1.03563 3.83425 1.53338 3.18755 2.14953C2.5375 2.7697 1.96432 3.51029 1.48473 4.35525C1.00346 5.20222 0.634154 6.10739 0.388507 7.04266C0.14286 7.97994 0.0125168 8.97542 0.000819334 10.003C-0.0108781 11.0286 0.102754 12.0341 0.336704 12.9895C0.570653 13.9388 0.965025 14.8741 1.50812 15.7672C2.05456 16.6643 2.74137 17.4611 3.55017 18.1355C4.0448 18.5449 4.52774 18.8761 4.98394 19.1189C5.43346 19.3598 5.92308 19.5344 6.43944 19.6387C6.96917 19.7471 7.43707 19.8134 7.82977 19.8374C8.2325 19.8615 8.79732 19.8736 9.52424 19.8736H16.4291C16.4291 19.4782 16.4257 19.1651 16.4241 18.9323C16.4207 18.6332 16.399 18.3001 16.3606 17.9348C16.3138 17.4892 16.2653 17.3066 16.2419 17.2383C16.2135 17.1601 16.15 17.0216 16.0013 16.8189C15.9044 16.6864 15.8041 16.6001 15.7072 16.566C15.5518 16.5118 15.3262 16.4516 15.0371 16.3874C14.7497 16.3251 14.4455 16.287 14.133 16.279C13.8022 16.269 13.3777 16.269 12.8597 16.279C11.8153 16.289 10.2712 16.293 8.2208 16.293C7.39864 16.293 6.64331 16.1124 5.97823 15.7531C5.3098 15.3939 4.75668 14.9082 4.33724 14.3141C3.92282 13.7281 3.6003 13.0497 3.38139 12.3011C3.16248 11.5565 3.05219 10.7837 3.05219 10.005C3.05219 9.2263 3.16248 8.4536 3.38139 7.70899C3.6003 6.95837 3.92282 6.282 4.33724 5.69595C4.75835 5.09986 5.31147 4.61617 5.97823 4.25691C6.64331 3.89765 7.39864 3.71702 8.2208 3.71702C8.423 3.71702 9.23681 3.74712 10.6589 3.80533C12.0609 3.86353 13.219 3.87156 14.103 3.8274C15.1958 3.77522 15.5735 3.61065 15.7005 3.51833C15.8559 3.40995 15.9779 3.27949 16.0765 3.1129C16.1851 2.93227 16.267 2.75565 16.3205 2.58706C16.3739 2.41446 16.4107 2.19569 16.4324 1.93478C16.4558 1.65179 16.4675 1.41296 16.4675 1.22229C16.4675 1.03162 16.4608 0.76067 16.4491 0.435532C16.4458 0.321131 16.4408 0.216767 16.4391 0.122437H16.4358Z" fill="black"/>
<path d="M5.10104 8.18665C4.95566 8.18665 4.83868 8.24285 4.7334 8.36728C4.63147 8.4877 4.58301 8.62217 4.58301 8.79277V11.2052C4.58301 11.3758 4.6298 11.5123 4.7334 11.6307C4.83868 11.7531 4.95398 11.8113 5.10104 11.8113H11.411C11.5547 11.8113 11.6683 11.7551 11.7686 11.6347C11.8689 11.5143 11.9157 11.3778 11.9157 11.2052V8.79277C11.9157 8.62017 11.8689 8.48369 11.7686 8.36326C11.6683 8.24284 11.5547 8.18665 11.411 8.18665H5.10104Z" fill="black"/>
<path d="M71.7566 0.122437H63.5366C62.5674 0.122437 61.6399 0.307081 60.7793 0.672359C59.9187 1.03563 59.1551 1.53338 58.5083 2.14953C57.8583 2.7697 57.2851 3.51029 56.8055 4.35525C56.3243 5.20222 55.955 6.10739 55.7093 7.04266C55.4637 7.97994 55.3333 8.97542 55.3216 10.003C55.3099 11.0286 55.4236 12.0341 55.6575 12.9895C55.8915 13.9388 56.2858 14.8741 56.8289 15.7672C57.3754 16.6643 58.0622 17.4611 58.871 18.1355C59.3656 18.5449 59.8485 18.8761 60.3047 19.1189C60.7543 19.3598 61.2439 19.5344 61.7602 19.6387C62.29 19.7471 62.7579 19.8134 63.1506 19.8374C63.5533 19.8615 64.1181 19.8736 64.845 19.8736H71.7499C71.7499 19.4782 71.7465 19.1651 71.7449 18.9323C71.7415 18.6332 71.7198 18.3001 71.6814 17.9348C71.6346 17.4892 71.5861 17.3066 71.5627 17.2383C71.5343 17.1601 71.4708 17.0216 71.3221 16.8189C71.2252 16.6864 71.1249 16.6001 71.028 16.566C70.8726 16.5118 70.647 16.4516 70.3579 16.3874C70.0705 16.3251 69.7663 16.287 69.4538 16.279C69.123 16.269 68.6985 16.269 68.1805 16.279C67.1361 16.289 65.592 16.293 63.5416 16.293C62.7194 16.293 61.9641 16.1124 61.299 15.7531C60.6306 15.3939 60.0775 14.9082 59.658 14.3141C59.2436 13.7281 58.9211 13.0497 58.7022 12.3011C58.4833 11.5565 58.373 10.7837 58.373 10.005C58.373 9.2263 58.4833 8.4536 58.7022 7.70899C58.9211 6.95837 59.2436 6.282 59.658 5.69595C60.0792 5.09986 60.6323 4.61617 61.299 4.25691C61.9641 3.89765 62.7194 3.71702 63.5416 3.71702C63.7438 3.71702 64.5576 3.74712 65.9797 3.80533C67.3817 3.86353 68.5398 3.87156 69.4238 3.8274C70.5166 3.77522 70.8943 3.61065 71.0213 3.51833C71.1767 3.40995 71.2987 3.27949 71.3973 3.1129C71.5059 2.93227 71.5878 2.75565 71.6413 2.58706C71.6947 2.41446 71.7315 2.19569 71.7532 1.93478C71.7766 1.65179 71.7883 1.41296 71.7883 1.22229C71.7883 1.03162 71.7816 0.76067 71.7699 0.435532C71.7649 0.321131 71.7616 0.216767 71.7599 0.122437H71.7566Z" fill="black"/>
<path d="M60.4216 8.18665C60.2762 8.18665 60.1592 8.24285 60.054 8.36728C59.952 8.4877 59.9036 8.62217 59.9036 8.79277V11.2052C59.9036 11.3758 59.9504 11.5123 60.054 11.6307C60.1592 11.7531 60.2745 11.8113 60.4216 11.8113H66.7315C66.8753 11.8113 66.9889 11.7551 67.0892 11.6347C67.1894 11.5143 67.2362 11.3778 67.2362 11.2052V8.79277C67.2362 8.62017 67.1894 8.48369 67.0892 8.36326C66.9889 8.24284 66.8753 8.18665 66.7315 8.18665H60.4216Z" fill="black"/>
<path d="M35.3021 9.50533L35.0681 9.25847L35.2436 8.94135C35.6463 8.2108 35.8953 7.39996 35.9989 6.555C36.0942 5.71807 36.0357 4.90924 35.8301 4.15259C35.6179 3.38591 35.2954 2.68345 34.8776 2.05726C34.4666 1.43308 33.9402 0.939347 33.3018 0.570054C32.6635 0.200762 31.9683 0.0161133 31.228 0.0161133H19.0476V1.84652C19.0476 2.25997 19.1429 2.62123 19.3417 2.93834C19.5322 3.26348 19.7662 3.46619 20.0603 3.57256L20.3243 3.6689V19.4602C20.3243 19.6007 20.3611 19.7151 20.4496 19.8214C20.5382 19.9278 20.6335 19.98 20.7571 19.98H31.9182C32.5916 19.98 33.245 19.8134 33.86 19.4963C34.4833 19.1792 35.018 18.7396 35.4659 18.2118C35.912 17.6739 36.2713 17.0236 36.5353 16.2851C36.7994 15.5465 36.9381 14.7617 36.9381 13.9529C36.9381 13.0999 36.791 12.281 36.5053 11.5063C36.2128 10.7396 35.8084 10.0713 35.3038 9.50733L35.3021 9.50533ZM23.3489 3.66087H31.228C31.7043 3.66087 32.1287 3.87161 32.4813 4.28505C32.8323 4.70853 33.0094 5.2103 33.0094 5.7823C33.0094 6.3543 32.8339 6.86408 32.4897 7.28757C32.1388 7.71105 31.7193 7.92179 31.2297 7.92179H23.3506V3.66087H23.3489ZM33.3235 15.6328C32.9359 16.0984 32.4579 16.3372 31.9165 16.3372H23.3489V11.5665H31.9165C32.4579 11.5665 32.9359 11.8034 33.3235 12.271C33.7112 12.7366 33.9017 13.3006 33.9017 13.9529C33.9017 14.6052 33.7112 15.1671 33.3235 15.6348V15.6328Z" fill="black"/>
<path d="M38.2331 1.47114C38.2331 2.74159 39.0937 3.77521 40.1515 3.77521H44.9592L44.9458 19.3557C44.9458 19.4982 44.9842 19.6066 45.0711 19.709C45.1597 19.8133 45.2549 19.8595 45.3786 19.8595H47.5192C47.6396 19.8595 47.7315 19.8133 47.8167 19.713C47.9019 19.6106 47.9387 19.5003 47.9387 19.3557V3.77521H52.7346C53.7924 3.77521 54.653 2.74159 54.653 1.47114V0.136475H38.2314V1.47114H38.2331Z" fill="black"/>
</svg>
