<svg width="24" height="25" viewBox="0 0 24 25" fill="none" xmlns="http://www.w3.org/2000/svg">
<path d="M22 8.858V17C22.0001 17.8301 21.6824 18.6288 21.1123 19.2322C20.5422 19.8356 19.7628 20.198 18.934 20.245L18.75 20.25H5.25C4.41986 20.2501 3.62117 19.9324 3.01777 19.3623C2.41437 18.7922 2.052 18.0128 2.005 17.184L2 17V8.858L11.652 13.914C11.7594 13.9702 11.8788 13.9996 12 13.9996C12.1212 13.9996 12.2406 13.9702 12.348 13.914L22 8.858ZM5.25 4.25H18.75C19.5556 4.2499 20.3325 4.549 20.93 5.08927C21.5276 5.62954 21.9032 6.37248 21.984 7.174L12 12.404L2.016 7.174C2.09352 6.40431 2.44305 5.68752 3.00175 5.15246C3.56045 4.61741 4.29168 4.29919 5.064 4.255L5.25 4.25Z" fill="white"/>
</svg>
