<svg width="44" height="44" viewBox="0 0 44 44" fill="none" xmlns="http://www.w3.org/2000/svg">
<path d="M27.5001 7.79158V36.2009C27.5001 38.1791 25.1644 39.2278 23.6867 37.9133L15.4514 30.5909C15.1997 30.3676 14.8749 30.2443 14.5384 30.2444H7.79175C7.25005 30.2444 6.71365 30.1377 6.21318 29.9304C5.71271 29.7231 5.25797 29.4193 4.87493 29.0362C4.49189 28.6532 4.18805 28.1985 3.98075 27.698C3.77344 27.1975 3.66675 26.6611 3.66675 26.1194V17.8731C3.66723 16.7794 4.10205 15.7306 4.87558 14.9575C5.64912 14.1843 6.69805 13.7499 7.79175 13.7499H14.5384C14.8751 13.7495 15.2 13.6256 15.4514 13.4016L23.6849 6.08108C25.1644 4.76658 27.5001 5.81525 27.5001 7.79158ZM34.8187 10.8129C35.1117 10.5959 35.4789 10.504 35.8396 10.5577C36.2002 10.6113 36.5248 10.806 36.7419 11.0989C39.08 14.2526 40.3394 18.0759 40.3334 22.0018C40.3385 25.9272 39.0784 29.7498 36.7401 32.9028C36.5207 33.1895 36.1974 33.3785 35.8399 33.4288C35.4824 33.4792 35.1194 33.3869 34.8293 33.172C34.5393 32.957 34.3454 32.6366 34.2896 32.2799C34.2337 31.9232 34.3204 31.5589 34.5309 31.2656C36.5182 28.5863 37.5886 25.3376 37.5834 22.0018C37.589 18.6653 36.5185 15.4159 34.5309 12.7361C34.4232 12.5908 34.3453 12.4258 34.3015 12.2504C34.2577 12.075 34.2489 11.8927 34.2756 11.7139C34.3023 11.5351 34.3641 11.3633 34.4573 11.2084C34.5505 11.0535 34.6733 10.9203 34.8187 10.8129ZM31.4289 15.3449C31.5877 15.2588 31.7619 15.2048 31.9415 15.186C32.1211 15.1673 32.3027 15.1841 32.4759 15.2355C32.649 15.2869 32.8103 15.3719 32.9506 15.4857C33.0909 15.5995 33.2074 15.7398 33.2934 15.8986C34.2761 17.7136 34.8334 19.7944 34.8334 22.0018C34.8344 24.1318 34.3051 26.2286 33.2934 28.1031C33.2075 28.262 33.0911 28.4024 32.9508 28.5163C32.8106 28.6302 32.6493 28.7154 32.4762 28.767C32.3031 28.8186 32.1215 28.8355 31.9418 28.8169C31.7621 28.7983 31.5878 28.7445 31.4289 28.6586C31.27 28.5726 31.1296 28.4562 31.0157 28.316C30.9018 28.1758 30.8166 28.0145 30.765 27.8414C30.7134 27.6682 30.6965 27.4866 30.7151 27.307C30.7337 27.1273 30.7875 26.953 30.8734 26.7941C31.6681 25.3218 32.0839 23.6748 32.0834 22.0018C32.0834 20.2638 31.6434 18.6321 30.8734 17.2076C30.7002 16.8869 30.6615 16.5105 30.7656 16.1613C30.8698 15.812 31.1084 15.5184 31.4289 15.3449Z" fill="#6E829F"/>
</svg>
