<svg width="20" height="20" viewBox="0 0 20 20" fill="none" xmlns="http://www.w3.org/2000/svg">
<g clip-path="url(#clip0_5_1916)">
<circle cx="10" cy="10" r="10" fill="white"/>
<g clip-path="url(#clip1_5_1916)">
<path d="M16.7105 10.7563C16.8959 10.5592 17 10.2917 17 10.0129C17 9.73409 16.8959 9.46668 16.7105 9.26949L11.1161 3.32102C11.0249 3.22059 10.9157 3.14048 10.7951 3.08537C10.6744 3.03026 10.5447 3.00125 10.4134 3.00004C10.282 2.99883 10.1518 3.02543 10.0303 3.0783C9.90875 3.13117 9.79834 3.20925 9.70549 3.30798C9.61263 3.40671 9.5392 3.52412 9.48948 3.65335C9.43975 3.78258 9.41473 3.92104 9.41587 4.06066C9.41701 4.20028 9.44429 4.33826 9.49612 4.46655C9.54795 4.59484 9.62329 4.71087 9.71774 4.80787L13.624 8.9614L3.98893 8.9614C3.72665 8.9614 3.47511 9.07218 3.28965 9.26938C3.10419 9.46658 3 9.73404 3 10.0129C3 10.2918 3.10419 10.5593 3.28965 10.7565C3.47511 10.9537 3.72665 11.0644 3.98893 11.0644L13.624 11.0644L9.71774 15.218C9.5376 15.4163 9.43792 15.6819 9.44018 15.9576C9.44243 16.2333 9.54643 16.4971 9.72979 16.692C9.91315 16.887 10.1612 16.9976 10.4205 17C10.6798 17.0024 10.9296 16.8964 11.1161 16.7048L16.7105 10.7563Z" fill="#5C67F7"/>
</g>
</g>
<defs>
<clipPath id="clip0_5_1916">
<rect width="20" height="20" fill="white"/>
</clipPath>
<clipPath id="clip1_5_1916">
<rect width="14" height="14" fill="white" transform="translate(17 3) rotate(90)"/>
</clipPath>
</defs>
</svg>
