<svg width="24" height="25" viewBox="0 0 24 25" fill="none" xmlns="http://www.w3.org/2000/svg">
<path d="M19 9.25C19 8.33075 18.8189 7.4205 18.4672 6.57122C18.1154 5.72194 17.5998 4.95026 16.9497 4.30025C16.2997 3.65024 15.5281 3.13463 14.6788 2.78284C13.8295 2.43106 12.9193 2.25 12 2.25C11.0807 2.25 10.1705 2.43106 9.32122 2.78284C8.47194 3.13463 7.70026 3.65024 7.05025 4.30025C6.40024 4.95026 5.88463 5.72194 5.53284 6.57122C5.18106 7.4205 5 8.33075 5 9.25C5 10.637 5.409 11.927 6.105 13.015H6.097L12 22.25L17.903 13.015H17.896C18.6169 11.8916 19.0001 10.5848 19 9.25ZM12 12.25C11.2044 12.25 10.4413 11.9339 9.87868 11.3713C9.31607 10.8087 9 10.0456 9 9.25C9 8.45435 9.31607 7.69129 9.87868 7.12868C10.4413 6.56607 11.2044 6.25 12 6.25C12.7956 6.25 13.5587 6.56607 14.1213 7.12868C14.6839 7.69129 15 8.45435 15 9.25C15 10.0456 14.6839 10.8087 14.1213 11.3713C13.5587 11.9339 12.7956 12.25 12 12.25Z" fill="white"/>
</svg>
