<svg width="72" height="72" viewBox="0 0 72 72" fill="none" xmlns="http://www.w3.org/2000/svg">
<rect x="0.5" y="0.5" width="71" height="71" rx="35.5" fill="#EEF0FE"/>
<rect x="0.5" y="0.5" width="71" height="71" rx="35.5" stroke="#DFE3FD"/>
<rect x="6" y="6" width="60" height="60" rx="30" fill="#FFC658"/>
<path d="M26.5062 32.8334V24.9167M34.4229 32.8334V24.9167M42.3395 32.8334V25.7084M24.9419 43.9167C22.6935 43.9167 21.5694 43.9167 20.8711 43.2201C20.1729 42.525 20.1729 41.4056 20.1729 39.1667V29.6667C20.1729 27.4279 20.1729 26.3085 20.8711 25.6134C21.5694 24.9183 22.6935 24.9167 24.9419 24.9167H36.1598C41.6587 24.9167 44.4089 24.9167 46.5148 26.0346C48.0633 26.8579 49.3553 28.0929 50.2451 29.6002C51.4548 31.6475 51.5688 34.3835 51.7968 39.8571C51.8601 41.3327 51.8918 42.0706 51.602 42.6279C51.3899 43.0396 51.0637 43.3784 50.6599 43.6064C50.1121 43.9167 49.3711 43.9167 47.8891 43.9167H47.0895M31.2562 43.9167H40.7562" stroke="white" stroke-width="2.375" stroke-linecap="round" stroke-linejoin="round"/>
<path d="M20.1606 32.8352H41.3266C42.3194 32.8352 42.6566 33.4163 43.4166 34.3283C44.2906 35.1833 44.8812 35.7834 45.6966 35.9053C46.8366 36.0763 51.0546 35.9908 51.0546 35.9908M28.09 47.0836C28.9298 47.0836 29.7353 46.75 30.3291 46.1561C30.923 45.5623 31.2566 44.7568 31.2566 43.917C31.2566 43.0771 30.923 42.2716 30.3291 41.6778C29.7353 41.0839 28.9298 40.7503 28.09 40.7503C27.2501 40.7503 26.4447 41.0839 25.8508 41.6778C25.2569 42.2716 24.9233 43.0771 24.9233 43.917C24.9233 44.7568 25.2569 45.5623 25.8508 46.1561C26.4447 46.75 27.2501 47.0836 28.09 47.0836ZM43.9233 47.0836C44.7632 47.0836 45.5686 46.75 46.1625 46.1561C46.7563 45.5623 47.09 44.7568 47.09 43.917C47.09 43.0771 46.7563 42.2716 46.1625 41.6778C45.5686 41.0839 44.7632 40.7503 43.9233 40.7503C43.0835 40.7503 42.278 41.0839 41.6841 41.6778C41.0903 42.2716 40.7566 43.0771 40.7566 43.917C40.7566 44.7568 41.0903 45.5623 41.6841 46.1561C42.278 46.75 43.0835 47.0836 43.9233 47.0836Z" stroke="white" stroke-width="2.375" stroke-linecap="round" stroke-linejoin="round"/>
</svg>
