<svg width="72" height="72" viewBox="0 0 72 72" fill="none" xmlns="http://www.w3.org/2000/svg">
<rect x="0.5" y="0.5" width="71" height="71" rx="35.5" fill="#EEF0FE"/>
<rect x="0.5" y="0.5" width="71" height="71" rx="35.5" stroke="#DFE3FD"/>
<rect x="6" y="6" width="60" height="60" rx="30" fill="#D03D46"/>
<path d="M36.9304 20.9701C36.324 20.7649 35.6668 20.7649 35.0604 20.9701L23.7671 24.7951C23.3992 24.9146 23.0744 25.139 22.8324 25.4408C22.5905 25.7425 22.4421 26.1084 22.4054 26.4934C21.8437 33.5368 22.8187 38.7451 25.1337 42.6801C27.3737 46.4884 30.9571 49.2568 35.9954 51.3201C41.0387 49.2568 44.6254 46.4884 46.8654 42.6801C49.1821 38.7468 50.1571 33.5368 49.5954 26.4934C49.5588 26.1084 49.4103 25.7425 49.1684 25.4408C48.9265 25.139 48.6016 24.9146 48.2337 24.7951L36.9304 20.9701ZM34.2587 18.6034C35.3849 18.2216 36.6055 18.221 37.7321 18.6018L49.0354 22.4268C49.8657 22.7033 50.5969 23.2167 51.1389 23.9038C51.6808 24.5909 52.0099 25.4216 52.0854 26.2934C52.6737 33.6434 51.6854 39.4201 49.0204 43.9484C46.3471 48.4901 42.0854 51.6118 36.4537 53.8301C36.1592 53.9462 35.8316 53.9462 35.5371 53.8301C29.9104 51.6118 25.6504 48.4901 22.9787 43.9484C20.3154 39.4201 19.3271 33.6418 19.9137 26.2934C19.9893 25.4216 20.3183 24.5909 20.8603 23.9038C21.4023 23.2167 22.1335 22.7033 22.9637 22.4268L34.2587 18.6034Z" fill="white"/>
<path d="M36.0009 28.9168C34.2559 28.9168 32.8509 30.3218 32.8509 32.0418C32.8509 33.7618 34.2575 35.1668 36.0009 35.1668C37.7442 35.1668 39.1509 33.7618 39.1509 32.0418C39.1498 31.6296 39.0674 31.2217 38.9084 30.8414C38.7494 30.4611 38.5169 30.1159 38.2243 29.8257C37.9317 29.5354 37.5847 29.3057 37.2031 29.1497C36.8216 28.9937 36.413 28.9146 36.0009 28.9168ZM30.3509 32.0418C30.3519 31.3013 30.499 30.5683 30.7836 29.8847C31.0683 29.2011 31.4849 28.5803 32.0097 28.0579C32.5344 27.5355 33.157 27.1216 33.8419 26.84C34.5267 26.5584 35.2604 26.4146 36.0009 26.4168C36.7413 26.4146 37.475 26.5584 38.1598 26.84C38.8447 27.1216 39.4673 27.5355 39.9921 28.0579C40.5168 28.5803 40.9334 29.2011 41.2181 29.8847C41.5027 30.5683 41.6498 31.3013 41.6509 32.0418C41.6498 32.7823 41.5027 33.5153 41.2181 34.1989C40.9334 34.8824 40.5168 35.5032 39.9921 36.0257C39.4673 36.5481 38.8447 36.9619 38.1598 37.2435C37.475 37.5251 36.7413 37.669 36.0009 37.6668C35.2604 37.669 34.5267 37.5251 33.8419 37.2435C33.157 36.9619 32.5344 36.5481 32.0097 36.0257C31.4849 35.5032 31.0683 34.8824 30.7836 34.1989C30.499 33.5153 30.3519 32.7823 30.3509 32.0418ZM31.8425 40.6518C30.4259 40.8884 29.3442 41.4018 28.6042 42.1451C27.7875 42.9584 27.2509 44.1784 27.2509 46.0001C27.2509 46.3316 27.1192 46.6496 26.8847 46.884C26.6503 47.1184 26.3324 47.2501 26.0009 47.2501C25.6693 47.2501 25.3514 47.1184 25.117 46.884C24.8826 46.6496 24.7509 46.3316 24.7509 46.0001C24.7509 43.6551 25.4625 41.7501 26.8342 40.3768C28.1892 39.0234 30.0525 38.3201 32.1125 38.0918L32.7375 38.0218L33.1625 38.4784L33.1959 38.5118C33.2259 38.5418 33.2764 38.5879 33.3475 38.6501C33.4892 38.7734 33.6992 38.9418 33.9659 39.1084C34.5109 39.4501 35.2159 39.7501 36.0009 39.7501C36.7842 39.7501 37.4909 39.4501 38.0342 39.1084C38.3109 38.9347 38.5699 38.7343 38.8075 38.5101L38.8375 38.4801L38.8392 38.4784L39.2642 38.0218L39.8892 38.0918C41.9492 38.3201 43.8125 39.0234 45.1659 40.3751C46.5392 41.7501 47.2509 43.6551 47.2509 46.0001C47.2509 46.3316 47.1192 46.6496 46.8847 46.884C46.6503 47.1184 46.3324 47.2501 46.0009 47.2501C45.6693 47.2501 45.3514 47.1184 45.117 46.884C44.8826 46.6496 44.7509 46.3316 44.7509 46.0001C44.7509 44.1784 44.2125 42.9584 43.3975 42.1451C42.6575 41.4034 41.5775 40.8884 40.1592 40.6518C39.9062 40.8583 39.6413 41.0497 39.3659 41.2251C38.5842 41.7168 37.4159 42.2501 36.0009 42.2501C34.5859 42.2501 33.4175 41.7168 32.6342 41.2251C32.3593 41.0497 32.095 40.8582 31.8425 40.6518Z" fill="white"/>
</svg>
