<svg width="72" height="72" viewBox="0 0 72 72" fill="none" xmlns="http://www.w3.org/2000/svg">
<rect x="0.5" y="0.5" width="71" height="71" rx="35.5" fill="#EEF0FE"/>
<rect x="0.5" y="0.5" width="71" height="71" rx="35.5" stroke="#DFE3FD"/>
<rect x="6" y="6" width="60" height="60" rx="30" fill="#0EA5E8"/>
<path d="M48.1076 41.5988H23.8921M48.1076 41.5988V29.6668C48.1076 26.6807 48.1076 25.1892 47.1798 24.2613C46.2535 23.3335 44.7604 23.3335 41.7743 23.3335H30.2254C27.2393 23.3335 25.7478 23.3335 24.8199 24.2613C23.8921 25.1892 23.8921 26.6807 23.8921 29.6668V41.5988M48.1076 41.5988L50.8689 44.4488L51.0083 44.5945C51.5161 45.1524 51.8081 45.8734 51.8316 46.6275L51.8332 46.8286C51.8332 47.0661 51.8332 47.1832 51.8268 47.283C51.7783 48.0523 51.4507 48.7775 50.9056 49.3226C50.3605 49.8677 49.6353 50.1953 48.866 50.2438C48.7146 50.2503 48.5631 50.2524 48.4116 50.2502H23.5881C23.3506 50.2502 23.2334 50.2502 23.1337 50.2438C22.3643 50.1953 21.6391 49.8677 21.094 49.3226C20.549 48.7775 20.2214 48.0523 20.1728 47.283C20.1665 47.1832 20.1665 47.0645 20.1665 46.8302L20.1681 46.6291C20.1916 45.875 20.4836 45.154 20.9914 44.5961L21.1308 44.4504L23.8921 41.5988M32.0415 46.2918H39.9582" stroke="white" stroke-width="2.375" stroke-linecap="round"/>
<path d="M37.187 27.6877C37.187 28.0027 37.0619 28.3047 36.8392 28.5274C36.6165 28.7501 36.3145 28.8752 35.9995 28.8752C35.6846 28.8752 35.3825 28.7501 35.1598 28.5274C34.9371 28.3047 34.812 28.0027 34.812 27.6877C34.812 27.3728 34.9371 27.0708 35.1598 26.8481C35.3825 26.6254 35.6846 26.5002 35.9995 26.5002C36.3145 26.5002 36.6165 26.6254 36.8392 26.8481C37.0619 27.0708 37.187 27.3728 37.187 27.6877Z" fill="white"/>
</svg>
