<svg width="72" height="72" viewBox="0 0 72 72" fill="none" xmlns="http://www.w3.org/2000/svg">
<rect x="0.5" y="0.5" width="71" height="71" rx="35.5" fill="#EEF0FE"/>
<rect x="0.5" y="0.5" width="71" height="71" rx="35.5" stroke="#DFE3FD"/>
<rect x="6" y="6" width="60" height="60" rx="30" fill="#19D6D6"/>
<path d="M21.606 36.0003C21.606 30.5723 21.606 27.8576 23.2929 26.1721C24.9799 24.4865 27.6932 24.4851 33.1211 24.4851H38.8787C44.3066 24.4851 47.0213 24.4851 48.7069 26.1721C50.3924 27.859 50.3938 30.5723 50.3938 36.0003V38.879C50.3938 44.307 50.3938 47.0217 48.7069 48.7072C47.0199 50.3928 44.3066 50.3942 38.8787 50.3942H33.1211C27.6932 50.3942 24.9785 50.3942 23.2929 48.7072C21.6074 47.0203 21.606 44.307 21.606 38.879V36.0003Z" stroke="white" stroke-width="2.15909"/>
<path d="M28.803 24.485V22.3259M43.1969 24.485V22.3259M22.3257 31.682H49.6742" stroke="white" stroke-width="2.15909" stroke-linecap="round"/>
<path d="M44.6359 43.197C44.6359 43.5787 44.4842 43.9448 44.2143 44.2148C43.9444 44.4847 43.5782 44.6364 43.1965 44.6364C42.8147 44.6364 42.4486 44.4847 42.1787 44.2148C41.9087 43.9448 41.7571 43.5787 41.7571 43.197C41.7571 42.8152 41.9087 42.4491 42.1787 42.1792C42.4486 41.9092 42.8147 41.7576 43.1965 41.7576C43.5782 41.7576 43.9444 41.9092 44.2143 42.1792C44.4842 42.4491 44.6359 42.8152 44.6359 43.197ZM44.6359 37.4394C44.6359 37.8211 44.4842 38.1873 44.2143 38.4572C43.9444 38.7271 43.5782 38.8788 43.1965 38.8788C42.8147 38.8788 42.4486 38.7271 42.1787 38.4572C41.9087 38.1873 41.7571 37.8211 41.7571 37.4394C41.7571 37.0576 41.9087 36.6915 42.1787 36.4216C42.4486 36.1517 42.8147 36 43.1965 36C43.5782 36 43.9444 36.1517 44.2143 36.4216C44.4842 36.6915 44.6359 37.0576 44.6359 37.4394ZM37.4389 43.197C37.4389 43.5787 37.2873 43.9448 37.0173 44.2148C36.7474 44.4847 36.3813 44.6364 35.9995 44.6364C35.6178 44.6364 35.2517 44.4847 34.9817 44.2148C34.7118 43.9448 34.5601 43.5787 34.5601 43.197C34.5601 42.8152 34.7118 42.4491 34.9817 42.1792C35.2517 41.9092 35.6178 41.7576 35.9995 41.7576C36.3813 41.7576 36.7474 41.9092 37.0173 42.1792C37.2873 42.4491 37.4389 42.8152 37.4389 43.197ZM37.4389 37.4394C37.4389 37.8211 37.2873 38.1873 37.0173 38.4572C36.7474 38.7271 36.3813 38.8788 35.9995 38.8788C35.6178 38.8788 35.2517 38.7271 34.9817 38.4572C34.7118 38.1873 34.5601 37.8211 34.5601 37.4394C34.5601 37.0576 34.7118 36.6915 34.9817 36.4216C35.2517 36.1517 35.6178 36 35.9995 36C36.3813 36 36.7474 36.1517 37.0173 36.4216C37.2873 36.6915 37.4389 37.0576 37.4389 37.4394ZM30.2419 43.197C30.2419 43.5787 30.0903 43.9448 29.8204 44.2148C29.5504 44.4847 29.1843 44.6364 28.8026 44.6364C28.4208 44.6364 28.0547 44.4847 27.7847 44.2148C27.5148 43.9448 27.3632 43.5787 27.3632 43.197C27.3632 42.8152 27.5148 42.4491 27.7847 42.1792C28.0547 41.9092 28.4208 41.7576 28.8026 41.7576C29.1843 41.7576 29.5504 41.9092 29.8204 42.1792C30.0903 42.4491 30.2419 42.8152 30.2419 43.197ZM30.2419 37.4394C30.2419 37.8211 30.0903 38.1873 29.8204 38.4572C29.5504 38.7271 29.1843 38.8788 28.8026 38.8788C28.4208 38.8788 28.0547 38.7271 27.7847 38.4572C27.5148 38.1873 27.3632 37.8211 27.3632 37.4394C27.3632 37.0576 27.5148 36.6915 27.7847 36.4216C28.0547 36.1517 28.4208 36 28.8026 36C29.1843 36 29.5504 36.1517 29.8204 36.4216C30.0903 36.6915 30.2419 37.0576 30.2419 37.4394Z" fill="white"/>
</svg>
