<svg width="72" height="72" viewBox="0 0 72 72" fill="none" xmlns="http://www.w3.org/2000/svg">
<rect x="0.5" y="0.5" width="71" height="71" rx="35.5" fill="#EEF0FE"/>
<rect x="0.5" y="0.5" width="71" height="71" rx="35.5" stroke="#DFE3FD"/>
<rect x="6" y="6" width="60" height="60" rx="30" fill="#FF8E6F"/>
<path d="M39.7868 33.4085L46.0002 19.3335M31.5268 33.7202L24.3335 19.3335M37.2702 32.7468L30.7252 19.3335M39.9335 19.3335L38.2002 23.5002M26.0002 42.6668C26.0002 45.319 27.0537 47.8625 28.9291 49.7379C30.8045 51.6133 33.348 52.6668 36.0002 52.6668C38.6523 52.6668 41.1959 51.6133 43.0712 49.7379C44.9466 47.8625 46.0002 45.319 46.0002 42.6668C46.0002 40.0147 44.9466 37.4711 43.0712 35.5958C41.1959 33.7204 38.6523 32.6668 36.0002 32.6668C33.348 32.6668 30.8045 33.7204 28.9291 35.5958C27.0537 37.4711 26.0002 40.0147 26.0002 42.6668Z" stroke="white" stroke-width="1.91489" stroke-linecap="round" stroke-linejoin="round"/>
<path d="M34.5404 41.0934L36.0004 37.6667L37.4604 41.0921L41.0004 41.4975L38.3516 43.9916L39.0966 47.6667L36.0004 45.7965L32.9041 47.6641L33.6504 43.989L31.0004 41.4988L34.5404 41.0934Z" fill="white"/>
</svg>
