<svg width="72" height="72" viewBox="0 0 72 72" fill="none" xmlns="http://www.w3.org/2000/svg">
<rect x="0.5" y="0.5" width="71" height="71" rx="35.5" fill="#EEF0FE"/>
<rect x="0.5" y="0.5" width="71" height="71" rx="35.5" stroke="#DFE3FD"/>
<rect x="6" y="6" width="60" height="60" rx="30" fill="#FF5D9F"/>
<path d="M28.2546 38.9414H38.0586V41.4904H28.2546V38.9414ZM28.2546 32.5688H42.9605V35.1179H28.2546V32.5688ZM28.2546 45.3139H34.3821V47.863H28.2546V45.3139Z" fill="white"/>
<path d="M46.637 22.3726H42.9605V21.0981C42.9605 20.422 42.7023 19.7737 42.2427 19.2957C41.783 18.8176 41.1596 18.5491 40.5096 18.5491H30.7056C30.0556 18.5491 29.4322 18.8176 28.9725 19.2957C28.5129 19.7737 28.2546 20.422 28.2546 21.0981V22.3726H24.5782C23.9281 22.3726 23.3047 22.6412 22.8451 23.1192C22.3854 23.5972 22.1272 24.2456 22.1272 24.9216V51.6863C22.1272 52.3624 22.3854 53.0107 22.8451 53.4888C23.3047 53.9668 23.9281 54.2353 24.5782 54.2353H46.637C47.287 54.2353 47.9105 53.9668 48.3701 53.4888C48.8298 53.0107 49.088 52.3624 49.088 51.6863V24.9216C49.088 24.2456 48.8298 23.5972 48.3701 23.1192C47.9105 22.6412 47.287 22.3726 46.637 22.3726ZM30.7056 21.0981H40.5096V26.1961H30.7056V21.0981ZM46.637 51.6863H24.5782V24.9216H28.2546V28.7451H42.9605V24.9216H46.637V51.6863Z" fill="white"/>
</svg>
