<svg width="72" height="72" viewBox="0 0 72 72" fill="none" xmlns="http://www.w3.org/2000/svg">
<rect x="0.5" y="0.5" width="71" height="71" rx="35.5" fill="#EEF0FE"/>
<rect x="0.5" y="0.5" width="71" height="71" rx="35.5" stroke="#DFE3FD"/>
<rect x="6" y="6" width="60" height="60" rx="30" fill="#4D5DDB"/>
<g clip-path="url(#clip0_5_1157)">
<path d="M36.638 52.8885C32.9761 48.8569 28.01 46.2455 22.613 45.5135C21.9987 45.4456 21.4313 45.1524 21.0204 44.6908C20.6096 44.2291 20.3842 43.6316 20.388 43.0135V22.8885C20.388 22.5307 20.4649 22.177 20.6134 21.8514C20.7619 21.5259 20.9786 21.236 21.2488 21.0013C21.519 20.7667 21.8364 20.5928 22.1795 20.4914C22.5227 20.39 22.8837 20.3634 23.238 20.4135C28.3987 21.2701 33.1198 23.842 36.638 27.7135M36.638 52.8885V27.7135M36.638 52.8885C40.2999 48.8569 45.266 46.2455 50.663 45.5135C51.2773 45.4456 51.8446 45.1524 52.2555 44.6908C52.6664 44.2291 52.8917 43.6316 52.888 43.0135V22.8885C52.8879 22.5307 52.8111 22.177 52.6626 21.8514C52.5141 21.5259 52.2974 21.236 52.0272 21.0013C51.757 20.7667 51.4396 20.5928 51.0964 20.4914C50.7533 20.39 50.3923 20.3634 50.038 20.4135C44.8773 21.2701 40.1562 23.842 36.638 27.7135" stroke="white" stroke-width="2.66667" stroke-linecap="round" stroke-linejoin="round"/>
</g>
<defs>
<clipPath id="clip0_5_1157">
<rect width="35" height="35" fill="white" transform="translate(19.1387 19.1382)"/>
</clipPath>
</defs>
</svg>
