<svg width="72" height="72" viewBox="0 0 72 72" fill="none" xmlns="http://www.w3.org/2000/svg">
<rect x="0.5" y="0.5" width="71" height="71" rx="35.5" fill="#EEF0FE"/>
<rect x="0.5" y="0.5" width="71" height="71" rx="35.5" stroke="#DFE3FD"/>
<rect x="6" y="6" width="60" height="60" rx="30" fill="#5C67F7"/>
<path d="M26.0005 41H21.0005M21.0005 51H41.0005C42.5538 51 43.3305 51 43.9422 50.7467C44.3469 50.5791 44.7146 50.3335 45.0243 50.0238C45.334 49.7141 45.5796 49.3464 45.7472 48.9417C46.0005 48.33 46.0005 47.5533 46.0005 46C46.0005 44.4467 46.0005 43.67 45.7472 43.0583C45.5796 42.6536 45.334 42.2859 45.0243 41.9762C44.7146 41.6665 44.3469 41.4209 43.9422 41.2533C43.3305 41 42.5538 41 41.0005 41H37.6672H46.0005C47.5538 41 48.3305 41 48.9422 40.7467C49.3469 40.5791 49.7146 40.3335 50.0243 40.0238C50.334 39.7141 50.5796 39.3464 50.7472 38.9417C51.0005 38.33 51.0005 37.5533 51.0005 36C51.0005 34.4467 51.0005 33.67 50.7472 33.0583C50.5796 32.6536 50.334 32.2859 50.0243 31.9762C49.7146 31.6665 49.3469 31.4209 48.9422 31.2533C48.3305 31 47.5538 31 46.0005 31H21.0005H39.3338C40.8872 31 41.6638 31 42.2755 30.7467C42.6802 30.5791 43.0479 30.3335 43.3576 30.0238C43.6673 29.7141 43.913 29.3464 44.0805 28.9417C44.3338 28.33 44.3338 27.5533 44.3338 26C44.3338 24.4467 44.3338 23.67 44.0805 23.0583C43.913 22.6536 43.6673 22.2859 43.3576 21.9762C43.0479 21.6665 42.6802 21.4209 42.2755 21.2533C41.6638 21 40.8872 21 39.3338 21H21.0005" stroke="white" stroke-width="1.59292" stroke-linecap="round" stroke-linejoin="round"/>
<path d="M37.6672 31V41.3167C37.6672 43.175 37.6672 44.1033 37.1239 44.3C36.5789 44.5 35.9639 43.7933 34.7356 42.3833L33.9322 41.4633C33.3439 40.7883 33.0506 40.4517 32.6672 40.4517C32.2839 40.4517 31.9906 40.7883 31.4006 41.4633L30.6006 42.3833C29.3706 43.7933 28.7556 44.5 28.2122 44.3C27.6672 44.1033 27.6672 43.175 27.6672 41.3167V31" stroke="white" stroke-width="1.59292" stroke-linecap="round" stroke-linejoin="round"/>
</svg>
