<svg width="72" height="72" viewBox="0 0 72 72" fill="none" xmlns="http://www.w3.org/2000/svg">
<rect x="0.5" y="0.5" width="71" height="71" rx="35.5" fill="#EEF0FE"/>
<rect x="0.5" y="0.5" width="71" height="71" rx="35.5" stroke="#DFE3FD"/>
<rect x="6" y="6" width="60" height="60" rx="30" fill="#9E5CF7"/>
<path d="M26.3484 36.5402H23.335C22.37 36.5402 21.5884 37.3235 21.5884 38.2868V49.6702C21.5884 50.6335 22.3717 51.4168 23.335 51.4168H26.35C27.3167 51.4168 28.0984 50.6335 28.0984 49.6685V38.2868C28.0979 37.8233 27.9136 37.3788 27.5858 37.0511C27.258 36.7233 26.8136 36.5389 26.35 36.5385M37.5067 20.5835H34.4934C33.5267 20.5835 32.745 21.3668 32.745 22.3318V49.6668C32.745 50.6335 33.5284 51.4152 34.495 51.4152H37.5067C38.4734 51.4152 39.255 50.6318 39.255 49.6668V22.3335C39.255 21.3668 38.4717 20.5852 37.505 20.5852M48.665 29.2118H45.65C44.6834 29.2118 43.9017 29.9952 43.9017 30.9618V49.6668C43.9017 50.6335 44.685 51.4152 45.65 51.4152H48.6634C49.1269 51.4147 49.5714 51.2304 49.8991 50.9026C50.2269 50.5748 50.4113 50.1304 50.4117 49.6668V30.9602C50.4117 29.9935 49.6284 29.2118 48.6617 29.2118" stroke="white" stroke-width="1.65957" stroke-linecap="round" stroke-linejoin="round"/>
</svg>
