<svg width="32" height="32" viewBox="0 0 32 32" fill="none" xmlns="http://www.w3.org/2000/svg">
<path d="M15.9994 0C13.0925 0 10.3675 0.775482 8.01916 2.1303L9.51674 4.74252C11.4663 3.61372 13.6874 3.0136 16.0007 3.0136C19.4699 3.0136 22.73 4.36452 25.1836 6.81827C27.6371 9.27201 28.9879 12.5324 28.9879 16.0019C28.9879 16.4865 28.9607 16.9671 28.9087 17.4412H31.9364C31.9792 16.9671 32 16.4878 32 16.0019C31.9987 7.16379 24.8355 0 15.9994 0ZM15.9994 28.9877C12.5301 28.9877 9.26866 27.6368 6.81642 25.183C4.36287 22.7293 3.01206 19.4689 3.01206 15.9994V15.9747H0V15.9994C0 24.8362 7.16321 32 15.9994 32C18.888 32 21.5987 31.2349 23.938 29.8944L22.4404 27.2822C20.4999 28.3954 18.2944 28.9864 15.9994 28.9864V28.9877Z" fill="#00AEEF"/>
<path d="M15.9994 6.12207C14.2018 6.12207 12.5172 6.60139 11.065 7.44182L12.6743 10.2515C13.6524 9.68383 14.7889 9.35779 15.9981 9.35779C19.1102 9.35779 21.7287 11.5115 22.4443 14.4069H15.0837L16.819 17.4387H25.7681C25.837 16.9684 25.8733 16.4878 25.8733 15.9994C25.8733 10.5437 21.452 6.12207 15.9981 6.12207H15.9994ZM15.9994 22.6423C12.3366 22.6423 9.35704 19.6625 9.35704 15.9994V15.9747H6.12158V15.9994C6.12158 21.4551 10.5429 25.8767 15.9981 25.8767C17.7788 25.8767 19.4479 25.4065 20.8909 24.5817L19.2803 21.772C18.3127 22.3254 17.1918 22.6423 15.9981 22.6423H15.9994Z" fill="#00AEEF"/>
</svg>
