<svg width="24" height="25" viewBox="0 0 24 25" fill="none" xmlns="http://www.w3.org/2000/svg">
<path d="M19.23 15.5098L16.69 15.2198C16.3913 15.1847 16.0886 15.2178 15.8046 15.3165C15.5205 15.4152 15.2625 15.577 15.05 15.7898L13.21 17.6298C10.3714 16.1857 8.06406 13.8784 6.62 11.0398L8.47 9.18977C8.9 8.75977 9.11 8.15977 9.04 7.54977L8.75 5.02977C8.69352 4.54186 8.45947 4.09179 8.09246 3.76536C7.72546 3.43893 7.25117 3.25897 6.76 3.25977H5.03C3.9 3.25977 2.96 4.19977 3.03 5.32977C3.56 13.8698 10.39 20.6898 18.92 21.2198C20.05 21.2898 20.99 20.3498 20.99 19.2198V17.4898C21 16.4798 20.24 15.6298 19.23 15.5098Z" fill="white"/>
</svg>
