<svg width="24" height="25" viewBox="0 0 24 25" fill="none" xmlns="http://www.w3.org/2000/svg">
<path d="M19.23 15.51L16.69 15.22C16.3914 15.1849 16.0886 15.218 15.8046 15.3167C15.5206 15.4154 15.2626 15.5773 15.05 15.79L13.21 17.63C10.3714 16.1859 8.0641 13.8786 6.62004 11.04L8.47004 9.19001C8.90004 8.76001 9.11004 8.16001 9.04004 7.55001L8.75004 5.03001C8.69356 4.5421 8.45951 4.09204 8.0925 3.76561C7.7255 3.43918 7.25121 3.25921 6.76004 3.26001H5.03004C3.90004 3.26001 2.96004 4.20001 3.03004 5.33001C3.56004 13.87 10.39 20.69 18.92 21.22C20.05 21.29 20.99 20.35 20.99 19.22V17.49C21 16.48 20.24 15.63 19.23 15.51Z" fill="white"/>
</svg>
