<svg width="44" height="44" viewBox="0 0 44 44" fill="none" xmlns="http://www.w3.org/2000/svg">
<path d="M9.16667 34.8333H12.8333C13.3528 34.8333 13.7885 35.0093 14.1405 35.3613C14.4925 35.7133 14.6679 36.1484 14.6667 36.6667C14.6654 37.1849 14.4894 37.6206 14.1387 37.9738C13.7879 38.3271 13.3528 38.5024 12.8333 38.5H7.33333C6.81389 38.5 6.37878 38.324 6.028 37.972C5.67722 37.62 5.50122 37.1849 5.5 36.6667V31.1667C5.5 30.6472 5.676 30.2121 6.028 29.8613C6.38 29.5106 6.81511 29.3346 7.33333 29.3333C7.85156 29.3321 8.28728 29.5081 8.6405 29.8613C8.99372 30.2146 9.16911 30.6497 9.16667 31.1667V34.8333ZM34.8333 34.8333V31.1667C34.8333 30.6472 35.0093 30.2121 35.3613 29.8613C35.7133 29.5106 36.1484 29.3346 36.6667 29.3333C37.1849 29.3321 37.6206 29.5081 37.9738 29.8613C38.3271 30.2146 38.5024 30.6497 38.5 31.1667V36.6667C38.5 37.1861 38.324 37.6218 37.972 37.9738C37.62 38.3258 37.1849 38.5012 36.6667 38.5H31.1667C30.6472 38.5 30.2121 38.324 29.8613 37.972C29.5106 37.62 29.3346 37.1849 29.3333 36.6667C29.3321 36.1484 29.5081 35.7133 29.8613 35.3613C30.2146 35.0093 30.6497 34.8333 31.1667 34.8333H34.8333ZM9.16667 9.16667V12.8333C9.16667 13.3528 8.99067 13.7885 8.63867 14.1405C8.28667 14.4925 7.85156 14.6679 7.33333 14.6667C6.81511 14.6654 6.38 14.4894 6.028 14.1387C5.676 13.7879 5.5 13.3528 5.5 12.8333V7.33333C5.5 6.81389 5.676 6.37878 6.028 6.028C6.38 5.67722 6.81511 5.50122 7.33333 5.5H12.8333C13.3528 5.5 13.7885 5.676 14.1405 6.028C14.4925 6.38 14.6679 6.81511 14.6667 7.33333C14.6654 7.85156 14.4894 8.28728 14.1387 8.6405C13.7879 8.99372 13.3528 9.16911 12.8333 9.16667H9.16667ZM34.8333 9.16667H31.1667C30.6472 9.16667 30.2121 8.99067 29.8613 8.63867C29.5106 8.28667 29.3346 7.85156 29.3333 7.33333C29.3321 6.81511 29.5081 6.38 29.8613 6.028C30.2146 5.676 30.6497 5.5 31.1667 5.5H36.6667C37.1861 5.5 37.6218 5.676 37.9738 6.028C38.3258 6.38 38.5012 6.81511 38.5 7.33333V12.8333C38.5 13.3528 38.324 13.7885 37.972 14.1405C37.62 14.4925 37.1849 14.6679 36.6667 14.6667C36.1484 14.6654 35.7133 14.4894 35.3613 14.1387C35.0093 13.7879 34.8333 13.3528 34.8333 12.8333V9.16667Z" fill="#6E829F"/>
</svg>
