<svg width="44" height="44" viewBox="0 0 44 44" fill="none" xmlns="http://www.w3.org/2000/svg">
<path d="M22 6.87511C22.8807 6.85272 23.7348 7.1776 24.3779 7.77959C25.0211 8.38159 25.4017 9.2124 25.4375 10.0926C25.4233 10.5297 25.3231 10.9596 25.1426 11.3579C24.9621 11.7562 24.7049 12.115 24.3856 12.4138C24.0664 12.7127 23.6914 12.9456 23.282 13.0994C22.8727 13.2532 22.437 13.3248 22 13.3101C21.563 13.3248 21.1273 13.2532 20.718 13.0994C20.3086 12.9456 19.9336 12.7127 19.6144 12.4138C19.2951 12.115 19.0379 11.7562 18.8574 11.3579C18.6769 10.9596 18.5767 10.5297 18.5625 10.0926C18.5983 9.2124 18.9789 8.38159 19.6221 7.77959C20.2652 7.1776 21.1193 6.85272 22 6.87511ZM22 30.6901C22.6252 30.733 23.2243 30.9575 23.7237 31.336C24.2231 31.7146 24.6011 32.2308 24.8112 32.8211C25.0213 33.4115 25.0545 34.0504 24.9066 34.6594C24.7587 35.2684 24.4362 35.8209 23.9787 36.2491C23.5212 36.6774 22.9486 36.9627 22.3312 37.07C21.7137 37.1774 21.0784 37.1021 20.5032 36.8534C19.928 36.6047 19.4379 36.1935 19.0932 35.6702C18.7484 35.1469 18.564 34.5343 18.5625 33.9076C18.5767 33.4706 18.6769 33.0406 18.8574 32.6423C19.0379 32.244 19.2951 31.8852 19.6144 31.5864C19.9336 31.2876 20.3086 31.0546 20.718 30.9008C21.1273 30.747 21.563 30.6754 22 30.6901ZM22 18.7826C22.8533 18.7826 23.6717 19.1216 24.2751 19.725C24.8785 20.3284 25.2175 21.1468 25.2175 22.0001C25.2175 22.8534 24.8785 23.6718 24.2751 24.2752C23.6717 24.8786 22.8533 25.2176 22 25.2176C21.1467 25.2176 20.3283 24.8786 19.7249 24.2752C19.1215 23.6718 18.7825 22.8534 18.7825 22.0001C18.7825 21.1468 19.1215 20.3284 19.7249 19.725C20.3283 19.1216 21.1467 18.7826 22 18.7826Z" fill="#6E829F"/>
</svg>
