<svg width="47" height="47" viewBox="0 0 47 47" fill="none" xmlns="http://www.w3.org/2000/svg">
<rect x="0.5" y="0.5" width="46" height="46" rx="23" fill="#FF8E6F" fill-opacity="0.15"/>
<rect x="0.5" y="0.5" width="46" height="46" rx="23" stroke="#FF8E6F"/>
<path d="M23.5 17.3125C22.6406 17.3125 21.8403 17.4736 21.0991 17.7959C20.3579 18.1182 19.7026 18.5586 19.1333 19.1172C18.564 19.6758 18.1181 20.3364 17.7959 21.0991C17.4736 21.8618 17.3125 22.6621 17.3125 23.5C17.3125 24.3594 17.4736 25.1597 17.7959 25.9009C18.1181 26.6421 18.5586 27.2974 19.1172 27.8667C19.6758 28.436 20.331 28.8818 21.083 29.2041C21.8349 29.5264 22.6406 29.6875 23.5 29.6875C24.3486 29.6875 25.1489 29.5264 25.9009 29.2041C26.6528 28.8818 27.3081 28.4414 27.8667 27.8828C28.4253 27.3242 28.8711 26.6689 29.2041 25.917C29.5371 25.165 29.6982 24.3594 29.6875 23.5C29.6875 22.8125 29.5693 22.125 29.333 21.4375H31.4922C31.5781 21.7813 31.6426 22.125 31.6855 22.4688C31.7285 22.8125 31.75 23.1562 31.75 23.5C31.75 24.6387 31.5351 25.7075 31.1055 26.7065C30.6758 27.7056 30.0849 28.5757 29.333 29.3169C28.581 30.0581 27.7056 30.6489 26.7065 31.0894C25.7075 31.5298 24.6387 31.75 23.5 31.75C22.3613 31.75 21.2925 31.5352 20.2934 31.1055C19.2944 30.6758 18.4243 30.085 17.6831 29.333C16.9419 28.5811 16.3511 27.7056 15.9106 26.7065C15.4702 25.7075 15.2554 24.6387 15.2661 23.5C15.2661 22.3613 15.4809 21.2925 15.9106 20.2935C16.3403 19.2944 16.9258 18.4243 17.667 17.6831C18.4082 16.9419 19.2837 16.3511 20.2934 15.9106C21.3032 15.4702 22.3721 15.25 23.5 15.25C23.8437 15.25 24.1875 15.2715 24.5312 15.3145C24.875 15.3574 25.2187 15.4219 25.5625 15.5078V17.667C24.875 17.4307 24.1875 17.3125 23.5 17.3125ZM37.4541 19.8101C37.7764 21.0239 37.9375 22.2539 37.9375 23.5C37.9375 24.8213 37.7656 26.0942 37.4219 27.3188C37.0781 28.5435 36.5947 29.6929 35.9717 30.7671C35.3486 31.8413 34.5913 32.8188 33.6997 33.6997C32.8081 34.5806 31.8359 35.3325 30.7832 35.9556C29.7305 36.5786 28.581 37.0674 27.3349 37.4219C26.0889 37.7764 24.8105 37.9482 23.5 37.9375C22.1787 37.9375 20.9057 37.7656 19.6811 37.4219C18.4565 37.0781 17.3071 36.5947 16.2329 35.9717C15.1587 35.3486 14.1811 34.5913 13.3003 33.6997C12.4194 32.8081 11.6675 31.8359 11.0444 30.7832C10.4214 29.7305 9.9326 28.5811 9.57811 27.335C9.22362 26.0889 9.05174 24.8105 9.06249 23.5C9.06249 22.1787 9.23436 20.9058 9.57811 19.6812C9.92186 18.4565 10.4053 17.3071 11.0283 16.2329C11.6514 15.1587 12.4087 14.1812 13.3003 13.3003C14.1919 12.4194 15.164 11.6675 16.2168 11.0444C17.2695 10.4214 18.4189 9.93262 19.665 9.57812C20.9111 9.22363 22.1894 9.05176 23.5 9.0625C24.7461 9.0625 25.9761 9.22363 27.1899 9.5459L25.5625 11.1733V11.3022C25.2187 11.2485 24.875 11.2056 24.5312 11.1733C24.1875 11.1411 23.8437 11.125 23.5 11.125C22.3613 11.125 21.2656 11.27 20.2129 11.5601C19.1601 11.8501 18.1772 12.269 17.2641 12.8169C16.3511 13.3647 15.5132 14.0093 14.7505 14.7505C13.9878 15.4917 13.3432 16.3242 12.8169 17.248C12.2905 18.1719 11.8769 19.1602 11.5762 20.2129C11.2754 21.2656 11.125 22.3613 11.125 23.5C11.125 24.6387 11.27 25.7344 11.56 26.7871C11.8501 27.8398 12.269 28.8228 12.8169 29.7358C13.3647 30.6489 14.0093 31.4868 14.7505 32.2495C15.4917 33.0122 16.3242 33.6567 17.248 34.1831C18.1719 34.7095 19.1601 35.123 20.2129 35.4238C21.2656 35.7246 22.3613 35.875 23.5 35.875C24.6387 35.875 25.7344 35.73 26.7871 35.4399C27.8398 35.1499 28.8227 34.731 29.7358 34.1831C30.6489 33.6353 31.4868 32.9907 32.2495 32.2495C33.0122 31.5083 33.6567 30.6758 34.1831 29.752C34.7095 28.8281 35.123 27.8398 35.4238 26.7871C35.7246 25.7344 35.875 24.6387 35.875 23.5C35.875 23.1562 35.8589 22.8125 35.8266 22.4688C35.7944 22.125 35.7515 21.7813 35.6977 21.4375H35.8266L37.4541 19.8101ZM27.625 17.9087V13.2842L33.8125 7.09668V13.1875H39.9033L33.7158 19.375H29.0913L25.498 22.9683C25.541 23.1294 25.5625 23.3066 25.5625 23.5C25.5625 23.79 25.5088 24.0586 25.4014 24.3057C25.2939 24.5527 25.1489 24.7676 24.9663 24.9502C24.7837 25.1328 24.5635 25.2832 24.3056 25.4014C24.0478 25.5195 23.7793 25.5732 23.5 25.5625C23.2099 25.5625 22.9414 25.5088 22.6943 25.4014C22.4473 25.2939 22.2324 25.1489 22.0498 24.9663C21.8672 24.7837 21.7168 24.5635 21.5986 24.3057C21.4805 24.0479 21.4267 23.7793 21.4375 23.5C21.4375 23.21 21.4912 22.9414 21.5986 22.6943C21.706 22.4473 21.8511 22.2324 22.0337 22.0498C22.2163 21.8672 22.4365 21.7168 22.6943 21.5986C22.9521 21.4805 23.2207 21.4268 23.5 21.4375C23.6933 21.4375 23.8706 21.459 24.0317 21.502L27.625 17.9087ZM29.6875 17.3125H32.8618L34.9243 15.25H31.75V12.0757L29.6875 14.1382V17.3125Z" fill="#FF8E6F"/>
</svg>
