<svg width="48" height="47" viewBox="0 0 48 47" fill="none" xmlns="http://www.w3.org/2000/svg">
<rect x="1" y="0.5" width="46" height="46" rx="23" fill="#9E5CF7"/>
<rect x="1" y="0.5" width="46" height="46" rx="23" stroke="white"/>
<g clip-path="url(#clip0_2_288)">
<path d="M24 27.625C26.2782 27.625 28.125 25.7782 28.125 23.5C28.125 21.2218 26.2782 19.375 24 19.375C21.7218 19.375 19.875 21.2218 19.875 23.5C19.875 25.7782 21.7218 27.625 24 27.625Z" stroke="white" stroke-width="2" stroke-linecap="round" stroke-linejoin="round"/>
<path d="M34.175 27.625C33.992 28.0397 33.9374 28.4998 34.0182 28.9458C34.0991 29.3919 34.3118 29.8034 34.6287 30.1275L34.7113 30.21C34.9669 30.4654 35.1698 30.7687 35.3082 31.1025C35.4466 31.4364 35.5178 31.7942 35.5178 32.1556C35.5178 32.517 35.4466 32.8749 35.3082 33.2087C35.1698 33.5426 34.9669 33.8458 34.7113 34.1012C34.4559 34.3569 34.1526 34.5598 33.8187 34.6982C33.4849 34.8366 33.127 34.9078 32.7656 34.9078C32.4042 34.9078 32.0464 34.8366 31.7125 34.6982C31.3787 34.5598 31.0754 34.3569 30.82 34.1012L30.7375 34.0187C30.4134 33.7018 30.0019 33.4891 29.5558 33.4082C29.1098 33.3274 28.6497 33.382 28.235 33.565C27.8283 33.7393 27.4815 34.0287 27.2372 34.3976C26.9929 34.7665 26.8618 35.1988 26.86 35.6412V35.875C26.86 36.6043 26.5703 37.3038 26.0545 37.8195C25.5388 38.3353 24.8393 38.625 24.11 38.625C23.3807 38.625 22.6812 38.3353 22.1655 37.8195C21.6497 37.3038 21.36 36.6043 21.36 35.875V35.7512C21.3494 35.2961 21.202 34.8547 20.9372 34.4845C20.6724 34.1142 20.3023 33.8321 19.875 33.675C19.4603 33.492 19.0002 33.4374 18.5542 33.5182C18.1081 33.5991 17.6966 33.8118 17.3725 34.1287L17.29 34.2113C17.0346 34.4669 16.7313 34.6698 16.3975 34.8082C16.0636 34.9466 15.7058 35.0178 15.3444 35.0178C14.983 35.0178 14.6251 34.9466 14.2913 34.8082C13.9574 34.6698 13.6542 34.4669 13.3987 34.2113C13.1431 33.9559 12.9402 33.6526 12.8018 33.3187C12.6634 32.9849 12.5922 32.627 12.5922 32.2656C12.5922 31.9042 12.6634 31.5464 12.8018 31.2125C12.9402 30.8787 13.1431 30.5754 13.3987 30.32L13.4812 30.2375C13.7982 29.9134 14.0109 29.5019 14.0918 29.0558C14.1726 28.6098 14.118 28.1497 13.935 27.735C13.7607 27.3283 13.4713 26.9815 13.1024 26.7372C12.7335 26.4929 12.3012 26.3618 11.8588 26.36H11.625C10.8957 26.36 10.1962 26.0703 9.68046 25.5545C9.16473 25.0388 8.875 24.3393 8.875 23.61C8.875 22.8807 9.16473 22.1812 9.68046 21.6655C10.1962 21.1497 10.8957 20.86 11.625 20.86H11.7487C12.2039 20.8494 12.6453 20.702 13.0155 20.4372C13.3858 20.1724 13.6679 19.8023 13.825 19.375C14.008 18.9603 14.0626 18.5002 13.9818 18.0542C13.9009 17.6081 13.6882 17.1966 13.3712 16.8725L13.2888 16.79C13.0331 16.5346 12.8302 16.2313 12.6918 15.8975C12.5534 15.5636 12.4822 15.2058 12.4822 14.8444C12.4822 14.483 12.5534 14.1251 12.6918 13.7913C12.8302 13.4574 13.0331 13.1542 13.2888 12.8987C13.5442 12.6431 13.8474 12.4402 14.1813 12.3018C14.5151 12.1634 14.873 12.0922 15.2344 12.0922C15.5958 12.0922 15.9536 12.1634 16.2875 12.3018C16.6213 12.4402 16.9246 12.6431 17.18 12.8987L17.2625 12.9812C17.5866 13.2982 17.9981 13.5109 18.4442 13.5918C18.8902 13.6726 19.3503 13.618 19.765 13.435H19.875C20.2817 13.2607 20.6285 12.9713 20.8728 12.6024C21.1171 12.2335 21.2482 11.8012 21.25 11.3588V11.125C21.25 10.3957 21.5397 9.69618 22.0555 9.18046C22.5712 8.66473 23.2707 8.375 24 8.375C24.7293 8.375 25.4288 8.66473 25.9445 9.18046C26.4603 9.69618 26.75 10.3957 26.75 11.125V11.2487C26.7518 11.6912 26.8829 12.1235 27.1272 12.4924C27.3715 12.8613 27.7183 13.1507 28.125 13.325C28.5397 13.508 28.9998 13.5626 29.4458 13.4818C29.8919 13.4009 30.3034 13.1882 30.6275 12.8712L30.71 12.7888C30.9654 12.5331 31.2687 12.3302 31.6025 12.1918C31.9364 12.0534 32.2942 11.9822 32.6556 11.9822C33.017 11.9822 33.3749 12.0534 33.7087 12.1918C34.0426 12.3302 34.3458 12.5331 34.6012 12.7888C34.8569 13.0442 35.0598 13.3474 35.1982 13.6813C35.3366 14.0151 35.4078 14.373 35.4078 14.7344C35.4078 15.0958 35.3366 15.4536 35.1982 15.7875C35.0598 16.1213 34.8569 16.4246 34.6012 16.68L34.5187 16.7625C34.2018 17.0866 33.9891 17.4981 33.9082 17.9442C33.8274 18.3902 33.882 18.8503 34.065 19.265V19.375C34.2393 19.7817 34.5287 20.1285 34.8976 20.3728C35.2665 20.6171 35.6988 20.7482 36.1412 20.75H36.375C37.1043 20.75 37.8038 21.0397 38.3195 21.5555C38.8353 22.0712 39.125 22.7707 39.125 23.5C39.125 24.2293 38.8353 24.9288 38.3195 25.4445C37.8038 25.9603 37.1043 26.25 36.375 26.25H36.2512C35.8088 26.2518 35.3765 26.3829 35.0076 26.6272C34.6387 26.8715 34.3493 27.2183 34.175 27.625Z" stroke="white" stroke-width="2" stroke-linecap="round" stroke-linejoin="round"/>
</g>
<defs>
<clipPath id="clip0_2_288">
<rect width="33" height="33" fill="white" transform="translate(7.5 7)"/>
</clipPath>
</defs>
</svg>
