<svg width="48" height="47" viewBox="0 0 48 47" fill="none" xmlns="http://www.w3.org/2000/svg">
<rect x="0.833252" y="0.5" width="46" height="46" rx="23" fill="#FF8E6F" fill-opacity="0.15"/>
<rect x="0.833252" y="0.5" width="46" height="46" rx="23" stroke="#FF8E6F"/>
<g clip-path="url(#clip0_5_1023)">
<path d="M23.8332 17.3125C22.9739 17.3125 22.1736 17.4736 21.4324 17.7959C20.6911 18.1182 20.0359 18.5586 19.4665 19.1172C18.8972 19.6758 18.4514 20.3364 18.1291 21.0991C17.8069 21.8618 17.6457 22.6621 17.6457 23.5C17.6457 24.3594 17.8069 25.1597 18.1291 25.9009C18.4514 26.6421 18.8918 27.2974 19.4504 27.8667C20.009 28.436 20.6643 28.8818 21.4162 29.2041C22.1682 29.5264 22.9739 29.6875 23.8332 29.6875C24.6819 29.6875 25.4822 29.5264 26.2341 29.2041C26.9861 28.8818 27.6413 28.4414 28.1999 27.8828C28.7585 27.3242 29.2043 26.6689 29.5373 25.917C29.8703 25.165 30.0315 24.3594 30.0207 23.5C30.0207 22.8125 29.9026 22.125 29.6662 21.4375H31.8254C31.9114 21.7813 31.9758 22.125 32.0188 22.4688C32.0618 22.8125 32.0832 23.1562 32.0832 23.5C32.0832 24.6387 31.8684 25.7075 31.4387 26.7065C31.009 27.7056 30.4182 28.5757 29.6662 29.3169C28.9143 30.0581 28.0388 30.6489 27.0398 31.0894C26.0408 31.5298 24.9719 31.75 23.8332 31.75C22.6946 31.75 21.6257 31.5352 20.6267 31.1055C19.6277 30.6758 18.7576 30.085 18.0163 29.333C17.2751 28.5811 16.6843 27.7056 16.2439 26.7065C15.8035 25.7075 15.5886 24.6387 15.5994 23.5C15.5994 22.3613 15.8142 21.2925 16.2439 20.2935C16.6736 19.2944 17.259 18.4243 18.0002 17.6831C18.7414 16.9419 19.6169 16.3511 20.6267 15.9106C21.6365 15.4702 22.7053 15.25 23.8332 15.25C24.177 15.25 24.5207 15.2715 24.8645 15.3145C25.2082 15.3574 25.552 15.4219 25.8957 15.5078V17.667C25.2082 17.4307 24.5207 17.3125 23.8332 17.3125ZM37.7873 19.8101C38.1096 21.0239 38.2707 22.2539 38.2707 23.5C38.2707 24.8213 38.0989 26.0942 37.7551 27.3188C37.4114 28.5435 36.928 29.6929 36.3049 30.7671C35.6819 31.8413 34.9245 32.8188 34.0329 33.6997C33.1413 34.5806 32.1692 35.3325 31.1164 35.9556C30.0637 36.5786 28.9143 37.0674 27.6682 37.4219C26.4221 37.7764 25.1438 37.9482 23.8332 37.9375C22.5119 37.9375 21.239 37.7656 20.0144 37.4219C18.7898 37.0781 17.6404 36.5947 16.5661 35.9717C15.4919 35.3486 14.5144 34.5913 13.6335 33.6997C12.7527 32.8081 12.0007 31.8359 11.3777 30.7832C10.7546 29.7305 10.2659 28.5811 9.91136 27.335C9.55687 26.0889 9.385 24.8105 9.39574 23.5C9.39574 22.1787 9.56761 20.9058 9.91136 19.6812C10.2551 18.4565 10.7385 17.3071 11.3616 16.2329C11.9846 15.1587 12.7419 14.1812 13.6335 13.3003C14.5251 12.4194 15.4973 11.6675 16.55 11.0444C17.6028 10.4214 18.7522 9.93262 19.9983 9.57812C21.2444 9.22363 22.5227 9.05176 23.8332 9.0625C25.0793 9.0625 26.3093 9.22363 27.5232 9.5459L25.8957 11.1733V11.3022C25.552 11.2485 25.2082 11.2056 24.8645 11.1733C24.5207 11.1411 24.177 11.125 23.8332 11.125C22.6946 11.125 21.5989 11.27 20.5461 11.5601C19.4934 11.8501 18.5105 12.269 17.5974 12.8169C16.6843 13.3647 15.8464 14.0093 15.0837 14.7505C14.321 15.4917 13.6765 16.3242 13.1501 17.248C12.6238 18.1719 12.2102 19.1602 11.9094 20.2129C11.6086 21.2656 11.4582 22.3613 11.4582 23.5C11.4582 24.6387 11.6033 25.7344 11.8933 26.7871C12.1833 27.8398 12.6023 28.8228 13.1501 29.7358C13.698 30.6489 14.3425 31.4868 15.0837 32.2495C15.8249 33.0122 16.6575 33.6567 17.5813 34.1831C18.5051 34.7095 19.4934 35.123 20.5461 35.4238C21.5989 35.7246 22.6946 35.875 23.8332 35.875C24.9719 35.875 26.0676 35.73 27.1203 35.4399C28.1731 35.1499 29.156 34.731 30.0691 34.1831C30.9822 33.6353 31.8201 32.9907 32.5827 32.2495C33.3454 31.5083 33.99 30.6758 34.5163 29.752C35.0427 28.8281 35.4563 27.8398 35.7571 26.7871C36.0578 25.7344 36.2082 24.6387 36.2082 23.5C36.2082 23.1562 36.1921 22.8125 36.1599 22.4688C36.1277 22.125 36.0847 21.7813 36.031 21.4375H36.1599L37.7873 19.8101ZM27.9582 17.9087V13.2842L34.1457 7.09668V13.1875H40.2366L34.0491 19.375H29.4245L25.8313 22.9683C25.8743 23.1294 25.8957 23.3066 25.8957 23.5C25.8957 23.79 25.842 24.0586 25.7346 24.3057C25.6272 24.5527 25.4822 24.7676 25.2995 24.9502C25.1169 25.1328 24.8967 25.2832 24.6389 25.4014C24.3811 25.5195 24.1125 25.5732 23.8332 25.5625C23.5432 25.5625 23.2746 25.5088 23.0276 25.4014C22.7805 25.2939 22.5657 25.1489 22.383 24.9663C22.2004 24.7837 22.05 24.5635 21.9319 24.3057C21.8137 24.0479 21.76 23.7793 21.7707 23.5C21.7707 23.21 21.8244 22.9414 21.9319 22.6943C22.0393 22.4473 22.1843 22.2324 22.3669 22.0498C22.5495 21.8672 22.7698 21.7168 23.0276 21.5986C23.2854 21.4805 23.5539 21.4268 23.8332 21.4375C24.0266 21.4375 24.2038 21.459 24.365 21.502L27.9582 17.9087ZM30.0207 17.3125H33.1951L35.2576 15.25H32.0832V12.0757L30.0207 14.1382V17.3125Z" fill="#FF8E6F"/>
</g>
<defs>
<clipPath id="clip0_5_1023">
<rect width="33" height="33" fill="white" transform="translate(7.33325 7)"/>
</clipPath>
</defs>
</svg>
