<svg width="47" height="48" viewBox="0 0 47 48" fill="none" xmlns="http://www.w3.org/2000/svg">
<rect x="0.5" y="1" width="46" height="46" rx="23" fill="#9E5CF7" fill-opacity="0.15"/>
<rect x="0.5" y="1" width="46" height="46" rx="23" stroke="#9E5CF7"/>
<g clip-path="url(#clip0_5_1008)">
<path d="M23.5 28.125C25.7782 28.125 27.625 26.2782 27.625 24C27.625 21.7218 25.7782 19.875 23.5 19.875C21.2218 19.875 19.375 21.7218 19.375 24C19.375 26.2782 21.2218 28.125 23.5 28.125Z" stroke="#9E5CF7" stroke-width="2" stroke-linecap="round" stroke-linejoin="round"/>
<path d="M33.675 28.125C33.492 28.5397 33.4374 28.9998 33.5182 29.4458C33.5991 29.8919 33.8118 30.3034 34.1287 30.6275L34.2113 30.71C34.4669 30.9654 34.6698 31.2687 34.8082 31.6025C34.9466 31.9364 35.0178 32.2942 35.0178 32.6556C35.0178 33.017 34.9466 33.3749 34.8082 33.7087C34.6698 34.0426 34.4669 34.3458 34.2113 34.6012C33.9559 34.8569 33.6526 35.0598 33.3187 35.1982C32.9849 35.3366 32.627 35.4078 32.2656 35.4078C31.9042 35.4078 31.5464 35.3366 31.2125 35.1982C30.8787 35.0598 30.5754 34.8569 30.32 34.6012L30.2375 34.5187C29.9134 34.2018 29.5019 33.9891 29.0558 33.9082C28.6098 33.8274 28.1497 33.882 27.735 34.065C27.3283 34.2393 26.9815 34.5287 26.7372 34.8976C26.4929 35.2665 26.3618 35.6988 26.36 36.1412V36.375C26.36 37.1043 26.0703 37.8038 25.5545 38.3195C25.0388 38.8353 24.3393 39.125 23.61 39.125C22.8807 39.125 22.1812 38.8353 21.6655 38.3195C21.1497 37.8038 20.86 37.1043 20.86 36.375V36.2512C20.8494 35.7961 20.702 35.3547 20.4372 34.9845C20.1724 34.6142 19.8023 34.3321 19.375 34.175C18.9603 33.992 18.5002 33.9374 18.0542 34.0182C17.6081 34.0991 17.1966 34.3118 16.8725 34.6287L16.79 34.7113C16.5346 34.9669 16.2313 35.1698 15.8975 35.3082C15.5636 35.4466 15.2058 35.5178 14.8444 35.5178C14.483 35.5178 14.1251 35.4466 13.7913 35.3082C13.4574 35.1698 13.1542 34.9669 12.8987 34.7113C12.6431 34.4559 12.4402 34.1526 12.3018 33.8187C12.1634 33.4849 12.0922 33.127 12.0922 32.7656C12.0922 32.4042 12.1634 32.0464 12.3018 31.7125C12.4402 31.3787 12.6431 31.0754 12.8987 30.82L12.9812 30.7375C13.2982 30.4134 13.5109 30.0019 13.5918 29.5558C13.6726 29.1098 13.618 28.6497 13.435 28.235C13.2607 27.8283 12.9713 27.4815 12.6024 27.2372C12.2335 26.9929 11.8012 26.8618 11.3588 26.86H11.125C10.3957 26.86 9.69618 26.5703 9.18046 26.0545C8.66473 25.5388 8.375 24.8393 8.375 24.11C8.375 23.3807 8.66473 22.6812 9.18046 22.1655C9.69618 21.6497 10.3957 21.36 11.125 21.36H11.2487C11.7039 21.3494 12.1453 21.202 12.5155 20.9372C12.8858 20.6724 13.1679 20.3023 13.325 19.875C13.508 19.4603 13.5626 19.0002 13.4818 18.5542C13.4009 18.1081 13.1882 17.6966 12.8712 17.3725L12.7888 17.29C12.5331 17.0346 12.3302 16.7313 12.1918 16.3975C12.0534 16.0636 11.9822 15.7058 11.9822 15.3444C11.9822 14.983 12.0534 14.6251 12.1918 14.2913C12.3302 13.9574 12.5331 13.6542 12.7888 13.3987C13.0442 13.1431 13.3474 12.9402 13.6813 12.8018C14.0151 12.6634 14.373 12.5922 14.7344 12.5922C15.0958 12.5922 15.4536 12.6634 15.7875 12.8018C16.1213 12.9402 16.4246 13.1431 16.68 13.3987L16.7625 13.4812C17.0866 13.7982 17.4981 14.0109 17.9442 14.0918C18.3902 14.1726 18.8503 14.118 19.265 13.935H19.375C19.7817 13.7607 20.1285 13.4713 20.3728 13.1024C20.6171 12.7335 20.7482 12.3012 20.75 11.8588V11.625C20.75 10.8957 21.0397 10.1962 21.5555 9.68046C22.0712 9.16473 22.7707 8.875 23.5 8.875C24.2293 8.875 24.9288 9.16473 25.4445 9.68046C25.9603 10.1962 26.25 10.8957 26.25 11.625V11.7487C26.2518 12.1912 26.3829 12.6235 26.6272 12.9924C26.8715 13.3613 27.2183 13.6507 27.625 13.825C28.0397 14.008 28.4998 14.0626 28.9458 13.9818C29.3919 13.9009 29.8034 13.6882 30.1275 13.3712L30.21 13.2888C30.4654 13.0331 30.7687 12.8302 31.1025 12.6918C31.4364 12.5534 31.7942 12.4822 32.1556 12.4822C32.517 12.4822 32.8749 12.5534 33.2087 12.6918C33.5426 12.8302 33.8458 13.0331 34.1012 13.2888C34.3569 13.5442 34.5598 13.8474 34.6982 14.1813C34.8366 14.5151 34.9078 14.873 34.9078 15.2344C34.9078 15.5958 34.8366 15.9536 34.6982 16.2875C34.5598 16.6213 34.3569 16.9246 34.1012 17.18L34.0187 17.2625C33.7018 17.5866 33.4891 17.9981 33.4082 18.4442C33.3274 18.8902 33.382 19.3503 33.565 19.765V19.875C33.7393 20.2817 34.0287 20.6285 34.3976 20.8728C34.7665 21.1171 35.1988 21.2482 35.6412 21.25H35.875C36.6043 21.25 37.3038 21.5397 37.8195 22.0555C38.3353 22.5712 38.625 23.2707 38.625 24C38.625 24.7293 38.3353 25.4288 37.8195 25.9445C37.3038 26.4603 36.6043 26.75 35.875 26.75H35.7512C35.3088 26.7518 34.8765 26.8829 34.5076 27.1272C34.1387 27.3715 33.8493 27.7183 33.675 28.125Z" stroke="#9E5CF7" stroke-width="2" stroke-linecap="round" stroke-linejoin="round"/>
</g>
<defs>
<clipPath id="clip0_5_1008">
<rect width="33" height="33" fill="white" transform="translate(7 7.5)"/>
</clipPath>
</defs>
</svg>
