<svg width="48" height="47" viewBox="0 0 48 47" fill="none" xmlns="http://www.w3.org/2000/svg">
<rect x="1.16675" y="0.5" width="46" height="46" rx="23" fill="#0EA5E8" fill-opacity="0.15"/>
<rect x="1.16675" y="0.5" width="46" height="46" rx="23" stroke="#5C67F7"/>
<path d="M24.1667 37.25C20.9813 36.4479 18.3514 34.6201 16.277 31.7665C14.2026 28.9129 13.1658 25.7449 13.1667 22.2625V13.875L24.1667 9.75L35.1667 13.875V22.2625C35.1667 25.7458 34.13 28.9143 32.0565 31.7679C29.983 34.6215 27.3531 36.4488 24.1667 37.25ZM24.1667 34.3625C26.3897 33.675 28.2459 32.317 29.7355 30.2884C31.2251 28.2598 32.0959 25.997 32.348 23.5H24.1667V12.6719L15.9167 15.7656V22.8813C15.9167 23.0417 15.9397 23.2479 15.9855 23.5H24.1667V34.3625Z" fill="#5C67F7"/>
</svg>
