<svg width="48" height="47" viewBox="0 0 48 47" fill="none" xmlns="http://www.w3.org/2000/svg">
<rect x="1" y="0.5" width="46" height="46" rx="23" fill="#5C67F7" fill-opacity="0.15"/>
<rect x="1" y="0.5" width="46" height="46" rx="23" stroke="#5C67F7"/>
<path d="M24 37.25C20.8146 36.4479 18.1847 34.6201 16.1103 31.7665C14.0358 28.9129 12.9991 25.7449 13 22.2625V13.875L24 9.75L35 13.875V22.2625C35 25.7458 33.9633 28.9143 31.8898 31.7679C29.8163 34.6215 27.1863 36.4488 24 37.25ZM24 34.3625C26.2229 33.675 28.0792 32.317 29.5687 30.2884C31.0583 28.2598 31.9292 25.997 32.1813 23.5H24V12.6719L15.75 15.7656V22.8813C15.75 23.0417 15.7729 23.2479 15.8188 23.5H24V34.3625Z" fill="#5C67F7"/>
</svg>
