<svg width="24" height="25" viewBox="0 0 24 25" fill="none" xmlns="http://www.w3.org/2000/svg">
<path d="M17 3.58989C18.5202 4.46758 19.7826 5.72997 20.6603 7.25017C21.538 8.77038 22 10.4948 22 12.2502C22 14.0056 21.5379 15.73 20.6602 17.2502C19.7825 18.7704 18.5201 20.0328 16.9999 20.9105C15.4797 21.7881 13.7552 22.2502 11.9998 22.2501C10.2445 22.2501 8.52002 21.788 6.99984 20.9103C5.47965 20.0326 4.21729 18.7702 3.33963 17.25C2.46198 15.7297 1.99996 14.0053 2 12.2499L2.005 11.9259C2.061 10.1989 2.56355 8.51585 3.46364 7.04089C4.36373 5.56592 5.63065 4.34934 7.14089 3.50977C8.65113 2.67021 10.3531 2.23629 12.081 2.25033C13.8089 2.26437 15.5036 2.72589 17 3.58989ZM12 6.24989C11.7348 6.24989 11.4804 6.35525 11.2929 6.54279C11.1054 6.73032 11 6.98468 11 7.24989V12.2759L11.009 12.3809L11.029 12.4879L11.069 12.6169L11.117 12.7189L11.163 12.7969L11.205 12.8569L11.274 12.9369L11.362 13.0199L11.445 13.0819L14.445 15.0819C14.5543 15.1548 14.6768 15.2054 14.8056 15.2309C14.9345 15.2565 15.0671 15.2564 15.1959 15.2306C15.3247 15.2049 15.4471 15.1541 15.5563 15.081C15.6654 15.008 15.7591 14.9142 15.832 14.8049C15.9049 14.6956 15.9555 14.5731 15.9811 14.4443C16.0066 14.3154 16.0065 14.1828 15.9808 14.054C15.955 13.9252 15.9042 13.8028 15.8311 13.6936C15.7581 13.5845 15.6643 13.4908 15.555 13.4179L13 11.7139V7.24989C13 7.00496 12.91 6.76856 12.7473 6.58552C12.5845 6.40249 12.3603 6.28555 12.117 6.25689L12 6.24989Z" fill="white"/>
</svg>
