<svg width="35" height="35" viewBox="0 0 35 35" fill="none" xmlns="http://www.w3.org/2000/svg">
<rect width="35" height="35" rx="5" fill="#FF5D9F" fill-opacity="0.15"/>
<path d="M18.0007 10C15.8281 10 15.5554 10.0095 14.7021 10.0483C13.8504 10.0874 13.269 10.2222 12.7604 10.42C12.2342 10.6243 11.7878 10.8977 11.3432 11.3425C10.8982 11.7872 10.6248 12.2335 10.4198 12.7595C10.2214 13.2683 10.0865 13.8499 10.0482 14.7012C10.01 15.5545 10 15.8273 10 18C10 20.1727 10.0096 20.4445 10.0483 21.2978C10.0875 22.1495 10.2223 22.7308 10.42 23.2395C10.6245 23.7657 10.8978 24.212 11.3426 24.6567C11.7872 25.1017 12.2335 25.3757 12.7594 25.58C13.2684 25.7778 13.8498 25.9126 14.7014 25.9517C15.5547 25.9905 15.8272 26 17.9998 26C20.1726 26 20.4445 25.9905 21.2978 25.9517C22.1494 25.9126 22.7314 25.7778 23.2405 25.58C23.7665 25.3757 24.2122 25.1017 24.6566 24.6567C25.1017 24.212 25.375 23.7657 25.58 23.2397C25.7766 22.7308 25.9117 22.1493 25.9517 21.298C25.99 20.4447 26 20.1727 26 18C26 15.8273 25.99 15.5547 25.9517 14.7013C25.9117 13.8496 25.7766 13.2684 25.58 12.7597C25.375 12.2335 25.1017 11.7872 24.6566 11.3425C24.2117 10.8975 23.7666 10.6242 23.24 10.4201C22.73 10.2222 22.1483 10.0873 21.2966 10.0483C20.4433 10.0095 20.1716 10 17.9982 10H18.0007ZM17.283 11.4417C17.4961 11.4413 17.7338 11.4417 18.0007 11.4417C20.1368 11.4417 20.3899 11.4493 21.2334 11.4877C22.0134 11.5233 22.4368 11.6537 22.7188 11.7632C23.0922 11.9081 23.3583 12.0815 23.6382 12.3616C23.9182 12.6416 24.0914 12.9082 24.2368 13.2816C24.3463 13.5632 24.4768 13.9865 24.5123 14.7665C24.5506 15.6099 24.559 15.8631 24.559 17.9982C24.559 20.1332 24.5506 20.3865 24.5123 21.2298C24.4766 22.0098 24.3463 22.4332 24.2368 22.7148C24.0918 23.0882 23.9182 23.354 23.6382 23.6339C23.3582 23.9139 23.0923 24.0871 22.7188 24.2322C22.4371 24.3422 22.0134 24.4722 21.2334 24.5079C20.3901 24.5462 20.1368 24.5545 18.0007 24.5545C15.8646 24.5545 15.6114 24.5462 14.7681 24.5079C13.9881 24.4719 13.5647 24.3415 13.2825 24.232C12.9092 24.087 12.6425 23.9137 12.3625 23.6337C12.0825 23.3537 11.9092 23.0877 11.7638 22.7142C11.6543 22.4325 11.5238 22.0092 11.4883 21.2292C11.45 20.3858 11.4423 20.1325 11.4423 17.9962C11.4423 15.8598 11.45 15.6079 11.4883 14.7645C11.524 13.9845 11.6543 13.5612 11.7638 13.2792C11.9089 12.9058 12.0825 12.6392 12.3626 12.3592C12.6426 12.0792 12.9092 11.9058 13.2826 11.7605C13.5646 11.6505 13.9881 11.5205 14.7681 11.4847C15.5061 11.4513 15.7921 11.4413 17.283 11.4397V11.4417ZM22.2711 12.77C21.7411 12.77 21.3111 13.1996 21.3111 13.7296C21.3111 14.2596 21.7411 14.6896 22.2711 14.6896C22.8011 14.6896 23.2311 14.2596 23.2311 13.7296C23.2311 13.1996 22.8011 12.7697 22.2711 12.7697V12.77ZM18.0007 13.8916C15.7319 13.8916 13.8924 15.7311 13.8924 18C13.8924 20.2689 15.7319 22.1075 18.0007 22.1075C20.2696 22.1075 22.1085 20.2689 22.1085 18C22.1085 15.7312 20.2694 13.8916 18.0006 13.8916H18.0007ZM18.0007 15.3333C19.4734 15.3333 20.6674 16.5271 20.6674 18C20.6674 19.4727 19.4734 20.6667 18.0007 20.6667C16.528 20.6667 15.3341 19.4727 15.3341 18C15.3341 16.5271 16.5279 15.3333 18.0007 15.3333Z" fill="#FF5D9F"/>
</svg>
